<svg id="svg" version="1.1" xmlns="http://www.w3.org/2000/svg" xmlns:xlink="http://www.w3.org/1999/xlink" width="400" height="400" viewBox="0, 0, 400,400"><g id="svgg"><path id="path0" d="M101.082 255.051 C 101.016 255.118,98.585 255.196,95.681 255.224 C 92.776 255.253,90.300 255.439,90.177 255.638 C 90.053 255.837,89.168 256.000,88.210 256.000 C 87.251 256.000,86.399 256.203,86.317 256.450 C 86.234 256.697,85.679 256.900,85.083 256.900 C 84.488 256.900,84.000 257.058,84.000 257.250 C 84.000 257.443,83.724 257.600,83.387 257.600 C 83.051 257.600,82.672 257.869,82.546 258.198 C 82.419 258.526,82.190 258.717,82.035 258.622 C 81.880 258.526,81.433 258.875,81.041 259.398 C 80.644 259.926,80.077 260.251,79.764 260.131 C 79.446 260.009,79.200 260.156,79.200 260.469 C 79.200 260.774,78.850 261.276,78.421 261.585 C 77.993 261.893,77.734 262.293,77.845 262.473 C 77.956 262.653,77.827 262.800,77.557 262.800 C 77.287 262.800,77.187 262.920,77.334 263.068 C 77.481 263.215,77.343 263.621,77.028 263.969 C 76.712 264.318,76.392 265.053,76.317 265.602 C 76.241 266.151,76.010 266.870,75.802 267.200 C 75.487 267.702,75.347 268.872,75.203 272.200 C 75.075 275.180,75.990 278.358,76.996 278.428 C 77.218 278.444,77.040 278.611,76.600 278.800 C 75.975 279.068,75.944 279.150,76.457 279.172 C 76.819 279.187,77.222 279.479,77.353 279.821 C 77.489 280.177,77.422 280.337,77.195 280.197 C 76.978 280.063,76.800 280.066,76.800 280.205 C 76.800 280.600,77.900 281.600,78.334 281.600 C 78.549 281.600,78.631 281.960,78.516 282.400 C 78.373 282.946,78.504 283.200,78.926 283.200 C 79.267 283.200,79.657 283.549,79.792 283.975 C 79.927 284.401,80.569 284.985,81.219 285.273 C 81.869 285.560,82.400 285.931,82.400 286.098 C 82.400 286.264,82.790 286.400,83.267 286.400 C 83.743 286.400,84.016 286.517,83.873 286.661 C 83.415 287.118,85.738 288.052,86.721 287.805 C 87.324 287.654,87.574 287.719,87.410 287.984 C 87.268 288.213,87.478 288.427,87.876 288.461 C 88.274 288.494,88.780 288.564,89.000 288.615 C 89.220 288.666,91.496 288.728,94.058 288.754 L 98.716 288.800 98.976 290.500 C 99.119 291.435,99.335 293.145,99.455 294.300 C 99.575 295.455,99.837 296.400,100.037 296.400 C 100.237 296.400,100.400 297.199,100.400 298.176 C 100.400 299.153,100.580 300.064,100.800 300.200 C 101.020 300.336,101.200 301.427,101.200 302.624 C 101.200 303.821,101.380 304.800,101.600 304.800 C 101.820 304.800,102.000 305.700,102.000 306.800 C 102.000 307.900,102.180 308.800,102.400 308.800 C 102.620 308.800,102.800 309.689,102.800 310.776 C 102.800 311.863,102.980 312.864,103.200 313.000 C 103.420 313.136,103.600 314.237,103.600 315.447 C 103.600 316.812,103.752 317.553,104.000 317.400 C 104.248 317.247,104.400 317.996,104.400 319.376 C 104.400 320.599,104.580 321.600,104.800 321.600 C 105.020 321.600,105.200 322.489,105.200 323.576 C 105.200 324.663,105.380 325.664,105.600 325.800 C 105.820 325.936,106.000 326.937,106.000 328.024 C 106.000 329.111,106.180 330.000,106.400 330.000 C 106.620 330.000,106.800 330.900,106.800 332.000 C 106.800 333.100,106.980 334.000,107.200 334.000 C 107.420 334.000,107.600 334.889,107.600 335.976 C 107.600 337.063,107.753 338.047,107.940 338.163 C 108.127 338.279,108.411 339.774,108.572 341.487 C 108.905 345.053,108.958 345.433,109.312 346.800 C 109.647 348.094,110.030 350.509,110.279 352.900 C 110.388 353.945,110.623 354.800,110.802 354.800 C 110.980 354.800,111.227 355.745,111.350 356.900 C 111.843 361.523,112.094 363.017,112.439 363.380 C 112.637 363.589,112.800 364.163,112.800 364.656 C 112.800 365.149,112.980 365.664,113.200 365.800 C 113.420 365.936,113.600 366.566,113.600 367.200 C 113.600 367.834,113.780 368.464,114.000 368.600 C 114.220 368.736,114.400 369.467,114.400 370.224 C 114.400 370.981,114.580 371.600,114.800 371.600 C 115.020 371.600,115.200 371.870,115.200 372.200 C 115.200 372.530,115.380 372.800,115.600 372.800 C 115.820 372.800,116.000 373.160,116.000 373.600 C 116.000 374.040,116.180 374.400,116.400 374.400 C 116.620 374.400,116.800 374.760,116.800 375.200 C 116.800 375.640,116.980 376.000,117.200 376.000 C 117.420 376.000,117.600 376.360,117.600 376.800 C 117.600 377.240,117.780 377.600,118.000 377.600 C 118.220 377.600,118.400 377.920,118.400 378.312 C 118.400 378.703,118.760 379.283,119.200 379.600 C 119.640 379.917,120.000 380.425,120.000 380.728 C 120.000 381.031,120.540 381.783,121.200 382.400 C 121.860 383.017,122.400 383.705,122.400 383.929 C 122.400 384.428,127.742 389.993,128.243 390.016 C 128.439 390.025,129.223 390.565,129.985 391.216 C 130.747 391.867,131.519 392.400,131.702 392.400 C 131.884 392.400,132.420 392.760,132.892 393.200 C 133.364 393.640,133.987 394.000,134.275 394.000 C 134.564 394.000,134.800 394.180,134.800 394.400 C 134.800 394.620,135.160 394.800,135.600 394.800 C 136.040 394.800,136.400 394.980,136.400 395.200 C 136.400 395.420,136.760 395.600,137.200 395.600 C 137.640 395.600,138.000 395.780,138.000 396.000 C 138.000 396.220,138.360 396.400,138.800 396.400 C 139.240 396.400,139.600 396.580,139.600 396.800 C 139.600 397.020,139.960 397.200,140.400 397.200 C 140.840 397.200,141.200 397.380,141.200 397.600 C 141.200 397.820,141.740 398.000,142.400 398.000 C 143.060 398.000,143.600 398.180,143.600 398.400 C 143.600 398.620,144.215 398.800,144.967 398.800 C 145.718 398.800,146.408 399.025,146.500 399.300 C 146.745 400.034,252.526 400.034,253.260 399.300 C 253.535 399.025,254.354 398.800,255.080 398.800 C 255.806 398.800,256.400 398.620,256.400 398.400 C 256.400 398.180,256.940 398.000,257.600 398.000 C 258.260 398.000,258.800 397.820,258.800 397.600 C 258.800 397.380,259.160 397.200,259.600 397.200 C 260.040 397.200,260.400 397.020,260.400 396.800 C 260.400 396.580,260.760 396.400,261.200 396.400 C 261.640 396.400,262.000 396.220,262.000 396.000 C 262.000 395.780,262.360 395.600,262.800 395.600 C 263.240 395.600,263.600 395.420,263.600 395.200 C 263.600 394.980,263.960 394.800,264.400 394.800 C 264.840 394.800,265.200 394.620,265.200 394.400 C 265.200 394.180,265.520 394.000,265.912 394.000 C 266.303 394.000,266.883 393.640,267.200 393.200 C 267.517 392.760,268.015 392.400,268.306 392.400 C 268.597 392.400,269.320 391.950,269.913 391.400 C 270.507 390.850,271.144 390.400,271.330 390.400 C 271.811 390.400,277.600 384.493,277.600 384.001 C 277.600 383.777,278.140 383.028,278.800 382.337 C 279.460 381.646,280.000 380.878,280.000 380.629 C 280.000 380.380,280.360 379.917,280.800 379.600 C 281.240 379.283,281.600 378.703,281.600 378.312 C 281.600 377.920,281.780 377.600,282.000 377.600 C 282.220 377.600,282.400 377.240,282.400 376.800 C 282.400 376.360,282.546 376.000,282.725 376.000 C 282.904 376.000,283.298 375.370,283.600 374.600 C 283.902 373.830,284.296 373.200,284.475 373.200 C 284.654 373.200,284.800 372.840,284.800 372.400 C 284.800 371.960,284.980 371.600,285.200 371.600 C 285.420 371.600,285.600 371.060,285.600 370.400 C 285.600 369.740,285.780 369.200,286.000 369.200 C 286.220 369.200,286.400 368.480,286.400 367.600 C 286.400 366.720,286.580 366.000,286.800 366.000 C 287.020 366.000,287.200 365.460,287.200 364.800 C 287.200 364.140,287.346 363.600,287.525 363.600 C 287.704 363.600,287.894 362.751,287.948 361.713 C 288.002 360.676,288.186 359.641,288.357 359.413 C 288.529 359.186,288.708 358.206,288.755 357.236 C 288.801 356.266,289.011 355.153,289.220 354.763 C 289.429 354.372,289.600 353.512,289.600 352.852 C 289.600 352.192,289.763 351.222,289.963 350.697 C 290.163 350.171,290.376 349.034,290.436 348.171 C 290.497 347.307,290.648 346.420,290.773 346.200 C 290.898 345.980,291.053 345.170,291.119 344.400 C 291.432 340.706,291.708 338.968,292.039 338.620 C 292.237 338.411,292.400 337.286,292.400 336.120 C 292.400 334.954,292.580 334.000,292.800 334.000 C 293.020 334.000,293.200 333.100,293.200 332.000 C 293.200 330.900,293.380 330.000,293.600 330.000 C 293.820 330.000,294.000 329.100,294.000 328.000 C 294.000 326.900,294.180 326.000,294.400 326.000 C 294.622 326.000,294.800 324.933,294.800 323.600 C 294.800 322.267,294.978 321.200,295.200 321.200 C 295.420 321.200,295.600 320.401,295.600 319.424 C 295.600 318.447,295.780 317.536,296.000 317.400 C 296.220 317.264,296.400 316.274,296.400 315.200 C 296.400 314.126,296.580 313.136,296.800 313.000 C 297.020 312.864,297.200 311.863,297.200 310.776 C 297.200 309.689,297.363 308.800,297.561 308.800 C 297.899 308.800,298.071 307.799,298.646 302.500 C 298.772 301.345,299.037 300.400,299.237 300.400 C 299.437 300.400,299.600 299.500,299.600 298.400 C 299.600 297.300,299.780 296.400,300.000 296.400 C 300.220 296.400,300.400 295.511,300.400 294.424 C 300.400 293.337,300.580 292.336,300.800 292.200 C 301.398 291.831,301.308 288.403,300.700 288.385 C 300.425 288.378,296.385 288.384,291.722 288.399 C 283.681 288.426,283.221 288.387,282.822 287.640 C 282.547 287.128,282.400 281.530,282.400 271.626 L 282.400 256.400 195.100 256.390 C 112.278 256.381,107.631 256.344,104.502 255.655 C 102.688 255.256,101.149 254.984,101.082 255.051 " stroke="none" fill="#fab76e" fill-rule="evenodd"></path><path id="path1" d="M200.408 128.100 C 200.400 254.936,200.402 255.200,201.200 255.200 C 201.704 255.200,202.000 254.933,202.000 254.480 C 202.000 254.084,202.148 253.589,202.328 253.380 C 202.508 253.171,203.081 251.650,203.600 250.000 C 204.119 248.350,204.692 246.829,204.872 246.620 C 205.052 246.411,205.200 245.914,205.200 245.515 C 205.200 245.116,205.380 244.432,205.600 243.995 C 205.820 243.558,206.180 242.842,206.400 242.405 C 206.620 241.968,206.800 241.338,206.800 241.005 C 206.800 240.672,206.980 240.400,207.200 240.400 C 207.420 240.400,207.600 239.961,207.600 239.424 C 207.600 238.887,207.780 238.336,208.000 238.200 C 208.220 238.064,208.400 237.603,208.400 237.176 C 208.400 236.749,208.580 236.400,208.800 236.400 C 209.020 236.400,209.200 236.038,209.200 235.595 C 209.200 235.152,209.377 234.477,209.594 234.095 C 209.810 233.713,210.511 232.230,211.151 230.800 C 213.950 224.545,219.707 213.093,220.400 212.400 C 220.796 212.004,222.054 209.785,222.271 209.100 C 222.393 208.715,222.652 208.400,222.847 208.400 C 223.041 208.400,223.200 208.164,223.200 207.875 C 223.200 207.587,223.560 206.964,224.000 206.492 C 224.440 206.020,224.800 205.521,224.800 205.384 C 224.800 204.996,231.864 194.723,232.904 193.600 C 233.413 193.050,234.092 192.221,234.414 191.757 C 235.145 190.706,238.029 187.254,240.388 184.606 C 243.087 181.577,251.990 172.844,253.591 171.655 C 254.366 171.080,255.270 170.332,255.600 169.993 C 255.930 169.654,257.010 168.755,258.000 167.994 C 258.990 167.234,259.996 166.429,260.235 166.206 C 260.474 165.983,261.599 165.170,262.734 164.400 C 264.733 163.044,264.798 162.940,264.799 161.100 C 264.800 160.055,264.980 159.200,265.200 159.200 C 265.420 159.200,265.600 159.849,265.600 160.643 C 265.600 162.359,265.771 162.328,269.186 160.009 C 270.490 159.124,271.664 158.400,271.795 158.400 C 271.926 158.400,272.420 158.040,272.892 157.600 C 273.364 157.160,273.987 156.800,274.275 156.800 C 274.564 156.800,274.800 156.620,274.800 156.400 C 274.800 156.180,274.986 156.000,275.213 156.000 C 275.441 156.000,277.466 154.768,279.713 153.263 C 281.961 151.758,283.990 150.453,284.223 150.363 C 284.608 150.215,290.227 146.714,295.494 143.341 C 296.645 142.603,297.770 142.000,297.994 142.000 C 298.217 142.000,298.400 141.820,298.400 141.600 C 298.400 141.380,298.670 141.200,299.000 141.200 C 299.330 141.200,299.600 141.041,299.600 140.847 C 299.600 140.652,299.915 140.393,300.300 140.271 C 301.209 139.983,303.153 138.788,304.158 137.900 C 304.594 137.515,305.109 137.200,305.303 137.200 C 305.497 137.200,306.441 136.660,307.400 136.000 C 308.359 135.340,309.337 134.800,309.572 134.800 C 309.807 134.800,310.000 134.620,310.000 134.400 C 310.000 134.180,310.170 134.000,310.379 134.000 C 312.124 134.000,316.680 130.383,317.055 128.700 C 317.190 128.095,317.460 127.600,317.656 127.600 C 317.852 127.600,317.975 127.100,317.928 126.489 C 317.881 125.877,318.009 125.112,318.212 124.789 C 318.414 124.465,318.641 123.753,318.716 123.207 C 318.791 122.662,319.004 122.121,319.190 122.006 C 319.376 121.891,319.589 121.258,319.664 120.599 C 319.745 119.880,320.007 119.442,320.317 119.506 C 320.701 119.584,320.732 119.421,320.438 118.870 C 320.008 118.067,320.279 116.400,320.839 116.400 C 321.029 116.400,321.112 115.815,321.024 115.100 C 320.933 114.364,321.124 113.395,321.464 112.865 C 321.794 112.351,321.981 111.847,321.879 111.745 C 321.777 111.643,321.862 110.894,322.068 110.080 C 322.275 109.266,322.522 107.892,322.617 107.027 C 322.712 106.161,322.983 105.334,323.218 105.189 C 323.466 105.036,323.534 104.476,323.379 103.859 C 323.066 102.610,323.479 100.000,323.990 100.000 C 324.185 100.000,324.407 100.405,324.484 100.900 C 324.613 101.727,324.643 101.712,324.854 100.712 C 324.981 100.114,324.942 99.712,324.768 99.820 C 324.361 100.071,323.897 96.910,324.149 95.600 C 324.254 95.050,324.354 94.454,324.370 94.276 C 324.387 94.098,324.547 94.044,324.728 94.155 C 324.908 94.267,325.060 92.162,325.065 89.479 C 325.081 81.816,325.153 80.724,325.627 81.017 C 326.169 81.352,325.953 79.912,325.400 79.506 C 325.152 79.324,325.190 79.210,325.500 79.206 C 325.852 79.202,326.000 78.365,326.000 76.376 C 326.000 74.596,325.852 73.644,325.600 73.800 C 325.357 73.950,325.177 73.291,325.141 72.124 C 325.108 71.066,325.034 68.811,324.975 67.113 C 324.854 63.625,325.082 62.305,325.745 62.635 C 325.995 62.759,325.818 62.522,325.352 62.108 C 323.999 60.908,323.519 55.808,324.835 56.622 C 325.275 56.894,325.263 56.477,324.800 55.400 C 324.472 54.637,324.455 54.641,324.428 55.500 C 324.413 55.995,324.240 56.400,324.045 56.400 C 323.544 56.400,323.123 53.847,323.424 52.646 C 323.582 52.017,323.438 51.304,323.038 50.733 C 322.223 49.570,322.223 48.059,323.037 47.159 C 323.626 46.508,323.614 46.471,322.875 46.664 C 322.036 46.884,321.299 45.611,321.797 44.804 C 321.934 44.583,321.781 44.023,321.457 43.560 C 321.133 43.097,320.950 42.267,321.050 41.715 C 321.167 41.069,320.989 40.534,320.551 40.214 C 320.162 39.929,319.973 39.446,320.111 39.087 C 320.244 38.741,320.117 38.263,319.829 38.024 C 319.176 37.482,318.947 37.772,317.326 41.200 C 316.650 42.630,314.814 46.410,313.246 49.600 C 311.678 52.790,310.397 55.625,310.398 55.900 C 310.399 56.175,310.220 56.400,310.000 56.400 C 309.780 56.400,309.600 56.760,309.600 57.200 C 309.600 57.640,309.420 58.000,309.200 58.000 C 308.980 58.000,308.800 58.360,308.800 58.800 C 308.800 59.240,308.620 59.600,308.400 59.600 C 308.180 59.600,308.000 59.960,308.000 60.400 C 308.000 60.840,307.820 61.200,307.600 61.200 C 307.380 61.200,307.200 61.434,307.200 61.719 C 307.200 62.005,306.030 64.624,304.600 67.539 C 303.170 70.455,302.000 72.927,302.000 73.033 C 302.000 73.139,299.683 77.944,296.851 83.713 C 291.213 95.198,287.606 102.642,284.406 109.400 C 283.260 111.820,281.080 116.325,279.561 119.411 C 278.042 122.498,276.800 125.243,276.800 125.511 C 276.800 125.780,276.620 126.000,276.400 126.000 C 276.180 126.000,276.000 126.360,276.000 126.800 C 276.000 127.240,275.820 127.600,275.600 127.600 C 275.380 127.600,275.200 127.960,275.200 128.400 C 275.200 128.840,275.020 129.200,274.800 129.200 C 274.580 129.200,274.400 129.560,274.400 130.000 C 274.400 130.440,274.220 130.800,274.000 130.800 C 273.780 130.800,273.600 131.034,273.600 131.319 C 273.600 131.605,272.430 134.224,271.000 137.139 C 269.570 140.055,268.400 142.505,268.400 142.584 C 268.400 142.664,267.592 144.410,266.605 146.464 C 264.945 149.919,264.810 150.439,264.805 153.380 C 264.798 157.490,264.118 156.912,263.886 152.600 C 263.705 149.232,262.253 136.684,261.573 132.600 C 261.193 130.321,260.899 128.567,260.013 123.300 C 259.801 122.035,259.519 120.280,259.388 119.400 C 259.258 118.520,258.994 117.440,258.802 117.000 C 258.456 116.203,258.152 114.752,257.735 111.897 C 257.614 111.071,257.355 110.295,257.158 110.174 C 256.961 110.052,256.800 109.344,256.800 108.600 C 256.800 107.856,256.620 107.136,256.400 107.000 C 256.180 106.864,256.000 106.144,256.000 105.400 C 256.000 104.656,255.820 103.936,255.600 103.800 C 255.380 103.664,255.200 102.944,255.200 102.200 C 255.200 101.456,255.020 100.736,254.800 100.600 C 254.580 100.464,254.400 100.001,254.400 99.571 C 254.400 99.141,254.238 98.477,254.039 98.095 C 253.840 97.713,253.460 96.590,253.193 95.600 C 252.927 94.610,252.574 93.440,252.410 93.000 C 251.557 90.719,251.174 89.165,251.381 88.830 C 251.509 88.624,251.430 88.342,251.207 88.204 C 250.983 88.066,250.800 87.423,250.800 86.776 C 250.800 86.129,250.620 85.600,250.400 85.600 C 250.180 85.600,250.000 85.238,250.000 84.795 C 250.000 84.017,249.858 83.631,248.862 81.705 C 248.608 81.213,248.400 80.538,248.400 80.205 C 248.400 79.872,248.220 79.600,248.000 79.600 C 247.780 79.600,247.600 79.161,247.600 78.624 C 247.600 78.087,247.420 77.536,247.200 77.400 C 246.980 77.264,246.800 76.713,246.800 76.176 C 246.800 75.639,246.620 75.200,246.400 75.200 C 246.180 75.200,246.000 74.851,246.000 74.424 C 246.000 73.997,245.803 73.525,245.562 73.377 C 245.322 73.228,245.207 72.677,245.307 72.153 C 245.427 71.526,245.303 71.200,244.945 71.200 C 244.645 71.200,244.400 70.928,244.400 70.595 C 244.400 70.262,244.235 69.677,244.034 69.295 C 243.134 67.589,242.206 65.356,242.200 64.883 C 242.196 64.599,242.007 64.239,241.780 64.083 C 241.552 63.927,241.120 63.035,240.819 62.100 C 240.518 61.165,240.109 60.400,239.909 60.400 C 239.709 60.400,239.654 60.061,239.785 59.647 C 239.940 59.160,239.794 58.806,239.370 58.644 C 239.011 58.506,238.814 58.140,238.933 57.830 C 239.052 57.520,238.901 57.171,238.597 57.054 C 238.293 56.937,237.924 56.203,237.778 55.421 C 237.631 54.639,237.351 54.000,237.155 54.000 C 236.960 54.000,236.800 53.724,236.800 53.387 C 236.800 53.051,236.531 52.672,236.202 52.546 C 235.874 52.419,235.696 52.167,235.809 51.986 C 235.921 51.804,235.830 51.542,235.607 51.404 C 235.383 51.266,235.200 50.803,235.200 50.376 C 235.200 49.949,235.020 49.600,234.800 49.600 C 234.580 49.600,234.400 49.240,234.400 48.800 C 234.400 48.360,234.251 48.000,234.068 48.000 C 233.886 48.000,233.134 46.785,232.398 45.300 C 231.661 43.815,230.551 41.848,229.929 40.928 C 229.308 40.008,228.800 39.078,228.800 38.861 C 228.800 38.644,228.665 38.407,228.500 38.333 C 228.124 38.166,226.825 36.036,226.529 35.100 C 226.407 34.715,226.148 34.400,225.953 34.400 C 225.759 34.400,225.600 34.218,225.600 33.996 C 225.600 33.774,224.610 32.058,223.400 30.182 C 222.190 28.307,221.200 26.598,221.200 26.386 C 221.200 26.174,221.016 26.000,220.791 26.000 C 220.567 26.000,220.162 25.505,219.892 24.900 C 219.622 24.295,219.009 23.400,218.530 22.911 C 218.050 22.422,217.336 21.477,216.943 20.811 C 216.549 20.145,216.086 19.600,215.914 19.600 C 215.741 19.600,215.599 19.375,215.598 19.100 C 215.597 18.825,215.057 18.025,214.398 17.322 C 213.739 16.619,213.200 15.917,213.200 15.763 C 213.200 15.609,212.435 14.631,211.500 13.590 C 210.565 12.548,208.720 10.381,207.400 8.773 C 206.080 7.165,203.968 4.758,202.708 3.425 L 200.415 1.000 200.408 128.100 M82.877 36.685 C 82.369 36.782,82.009 37.001,82.077 37.171 C 82.672 38.667,89.470 51.831,89.700 51.933 C 89.865 52.007,90.000 52.412,90.000 52.833 C 90.000 53.255,90.180 53.600,90.400 53.600 C 90.620 53.600,90.800 53.960,90.800 54.400 C 90.800 54.840,90.980 55.200,91.200 55.200 C 91.420 55.200,91.600 55.545,91.600 55.967 C 91.600 56.388,91.735 56.793,91.900 56.867 C 92.303 57.046,93.984 60.267,101.678 75.600 C 105.265 82.750,108.335 88.660,108.500 88.733 C 108.665 88.807,108.800 89.212,108.800 89.633 C 108.800 90.055,108.980 90.400,109.200 90.400 C 109.420 90.400,109.600 90.760,109.600 91.200 C 109.600 91.640,109.780 92.000,110.000 92.000 C 110.220 92.000,110.400 92.360,110.400 92.800 C 110.400 93.240,110.580 93.600,110.800 93.600 C 111.020 93.600,111.200 93.960,111.200 94.400 C 111.200 94.840,111.380 95.200,111.600 95.200 C 111.820 95.200,112.000 95.545,112.000 95.967 C 112.000 96.388,112.145 96.793,112.322 96.867 C 112.631 96.995,115.983 103.692,120.396 113.000 C 121.544 115.420,123.274 119.021,124.241 121.003 C 125.209 122.985,126.000 124.830,126.000 125.103 C 126.000 125.376,126.135 125.601,126.300 125.603 C 126.659 125.607,127.600 127.544,127.600 128.280 C 127.600 128.566,127.780 128.800,128.000 128.800 C 128.220 128.800,128.400 129.145,128.400 129.567 C 128.400 129.988,128.535 130.393,128.700 130.467 C 128.865 130.540,129.390 131.410,129.868 132.400 C 136.252 145.644,135.900 145.257,136.450 139.648 C 137.049 133.546,137.235 132.216,137.600 131.400 C 137.797 130.960,138.062 129.700,138.190 128.600 C 138.317 127.500,138.523 125.700,138.648 124.600 C 138.772 123.500,139.037 122.429,139.237 122.220 C 139.437 122.011,139.600 120.987,139.600 119.944 C 139.600 118.901,139.780 117.936,140.000 117.800 C 140.220 117.664,140.400 116.944,140.400 116.200 C 140.400 115.456,140.580 114.736,140.800 114.600 C 141.020 114.464,141.200 113.744,141.200 113.000 C 141.200 112.256,141.380 111.536,141.600 111.400 C 141.820 111.264,142.000 110.454,142.000 109.600 C 142.000 108.746,142.180 107.936,142.400 107.800 C 142.620 107.664,142.800 106.944,142.800 106.200 C 142.800 105.456,142.980 104.736,143.200 104.600 C 143.420 104.464,143.600 103.832,143.600 103.195 C 143.600 102.559,143.763 101.624,143.963 101.119 C 144.432 99.929,146.634 92.699,147.196 90.499 C 147.598 88.927,147.555 88.716,146.616 87.703 C 146.057 87.101,145.600 86.480,145.600 86.322 C 145.600 86.165,145.150 85.586,144.600 85.036 C 144.050 84.486,143.600 83.925,143.600 83.790 C 143.600 83.654,143.375 83.311,143.100 83.027 C 142.034 81.928,140.344 79.934,139.096 78.303 C 138.379 77.367,136.714 75.505,135.396 74.166 C 134.078 72.827,132.255 70.937,131.344 69.966 C 129.223 67.705,122.075 61.039,120.532 59.885 C 119.882 59.398,118.911 58.588,118.375 58.084 C 117.839 57.580,116.140 56.239,114.600 55.103 C 113.060 53.967,111.562 52.804,111.271 52.519 C 110.981 52.233,110.589 52.000,110.400 52.000 C 110.211 52.000,109.819 51.765,109.529 51.478 C 108.720 50.679,104.090 47.600,103.697 47.600 C 103.507 47.600,102.957 47.233,102.475 46.784 C 101.994 46.336,101.600 46.068,101.600 46.189 C 101.600 46.311,100.884 45.958,100.008 45.405 C 99.132 44.852,98.274 44.400,98.101 44.400 C 97.928 44.400,97.159 43.979,96.393 43.465 C 94.167 41.972,90.402 40.000,89.775 40.000 C 89.459 40.000,89.200 39.820,89.200 39.600 C 89.200 39.380,88.947 39.200,88.638 39.200 C 88.329 39.200,87.384 38.855,86.538 38.433 C 85.692 38.011,84.674 37.563,84.275 37.436 C 83.876 37.309,83.661 37.024,83.798 36.803 C 83.935 36.581,83.992 36.425,83.924 36.454 C 83.856 36.484,83.385 36.588,82.877 36.685 M45.733 112.881 C 46.474 114.266,47.672 116.390,48.396 117.600 C 49.733 119.835,49.913 120.149,53.107 125.800 C 54.101 127.560,55.429 129.752,56.058 130.672 C 56.686 131.592,57.200 132.537,57.200 132.772 C 57.200 133.007,57.380 133.200,57.600 133.200 C 57.820 133.200,58.000 133.470,58.000 133.800 C 58.000 134.130,58.180 134.400,58.400 134.400 C 58.620 134.400,58.800 134.670,58.800 135.000 C 58.800 135.330,58.980 135.600,59.200 135.600 C 59.420 135.600,59.600 135.785,59.600 136.012 C 59.600 136.238,61.040 138.573,62.800 141.200 C 64.560 143.827,66.000 146.079,66.000 146.205 C 66.000 146.331,66.185 146.651,66.411 146.917 C 66.636 147.183,68.195 149.463,69.875 151.985 C 71.554 154.507,73.259 156.926,73.664 157.361 C 74.069 157.795,74.400 158.387,74.400 158.675 C 74.400 158.964,74.541 159.200,74.714 159.200 C 74.886 159.200,75.343 159.733,75.728 160.385 C 76.113 161.037,76.653 161.802,76.927 162.085 C 77.202 162.368,77.862 163.230,78.394 164.000 C 78.926 164.770,79.463 165.490,79.588 165.600 C 79.712 165.710,81.914 168.590,84.480 172.000 C 87.046 175.410,89.563 178.680,90.073 179.266 C 90.583 179.853,91.270 180.666,91.600 181.073 C 93.732 183.701,95.820 186.229,96.000 186.400 C 96.116 186.510,97.019 187.587,98.005 188.793 C 98.992 189.999,100.316 191.529,100.946 192.193 C 101.576 192.857,103.016 194.480,104.146 195.800 C 107.028 199.167,126.503 218.728,128.528 220.289 C 129.448 220.999,131.028 222.349,132.039 223.289 C 134.938 225.985,137.530 228.116,141.200 230.820 C 143.070 232.197,144.690 233.435,144.800 233.569 C 145.056 233.883,152.152 239.162,154.000 240.413 C 154.770 240.935,155.490 241.460,155.600 241.581 C 155.710 241.702,156.295 242.056,156.900 242.368 C 157.505 242.680,158.000 243.085,158.000 243.268 C 158.000 243.450,158.176 243.600,158.391 243.600 C 158.605 243.600,160.540 244.650,162.691 245.932 C 164.841 247.215,167.950 248.970,169.600 249.832 C 171.250 250.695,172.690 251.490,172.800 251.600 C 173.262 252.062,176.521 253.600,177.038 253.600 C 177.347 253.600,177.600 253.780,177.600 254.000 C 177.600 254.220,177.949 254.400,178.376 254.400 C 178.803 254.400,179.264 254.580,179.400 254.800 C 179.712 255.305,196.800 255.347,196.800 254.843 C 196.800 254.204,193.582 244.646,192.780 242.904 C 192.351 241.972,192.000 240.937,192.000 240.604 C 192.000 240.272,191.820 240.000,191.600 240.000 C 191.380 240.000,191.200 239.561,191.200 239.024 C 191.200 238.487,191.020 237.936,190.800 237.800 C 190.580 237.664,190.400 237.203,190.400 236.776 C 190.400 236.349,190.220 236.000,190.000 236.000 C 189.780 236.000,189.600 235.694,189.600 235.319 C 189.600 234.944,188.627 232.649,187.438 230.219 C 186.250 227.789,184.468 224.090,183.479 222.000 C 182.490 219.910,180.672 216.422,179.440 214.249 C 178.208 212.076,177.200 210.141,177.200 209.949 C 177.200 209.757,177.020 209.600,176.800 209.600 C 176.580 209.600,176.400 209.415,176.400 209.188 C 176.400 208.800,170.154 199.227,169.622 198.800 C 169.485 198.690,168.524 197.398,167.487 195.929 C 166.450 194.460,165.374 193.020,165.095 192.729 C 164.817 192.438,163.847 191.257,162.939 190.104 C 162.031 188.950,159.964 186.551,158.344 184.770 C 155.760 181.929,154.298 180.458,148.639 175.000 C 147.954 174.340,145.866 172.551,143.997 171.024 C 142.129 169.496,140.510 168.146,140.400 168.024 C 140.290 167.901,139.030 166.998,137.600 166.017 C 136.170 165.036,134.940 164.091,134.867 163.917 C 134.793 163.743,134.493 163.600,134.200 163.600 C 133.907 163.600,133.607 163.451,133.533 163.270 C 133.388 162.909,127.383 158.800,127.001 158.800 C 126.872 158.800,126.380 158.440,125.908 158.000 C 125.436 157.560,124.813 157.200,124.525 157.200 C 124.236 157.200,124.000 157.020,124.000 156.800 C 124.000 156.580,123.844 156.400,123.654 156.400 C 123.306 156.400,112.467 149.702,109.328 147.548 C 108.408 146.916,107.463 146.400,107.228 146.400 C 106.993 146.400,106.800 146.220,106.800 146.000 C 106.800 145.780,106.564 145.600,106.275 145.600 C 105.987 145.600,105.402 145.275,104.975 144.878 C 104.549 144.480,103.615 143.897,102.900 143.580 C 102.185 143.264,101.600 142.869,101.600 142.702 C 101.600 142.536,101.330 142.400,101.000 142.400 C 100.670 142.400,100.400 142.220,100.400 142.000 C 100.400 141.780,100.203 141.600,99.962 141.600 C 99.721 141.600,99.046 141.261,98.462 140.847 C 97.878 140.433,96.671 139.668,95.780 139.147 C 89.655 135.565,85.852 133.286,83.600 131.848 C 82.170 130.935,80.460 129.920,79.800 129.594 C 79.140 129.267,78.381 128.730,78.113 128.400 C 77.845 128.070,77.620 127.947,77.613 128.127 C 77.606 128.307,77.077 128.082,76.438 127.627 C 75.799 127.172,75.088 126.800,74.858 126.800 C 74.628 126.800,74.296 126.575,74.120 126.300 C 73.944 126.025,73.080 125.448,72.200 125.017 C 71.320 124.586,70.150 123.938,69.600 123.578 C 69.050 123.217,67.610 122.381,66.400 121.720 C 65.190 121.059,63.390 120.034,62.400 119.442 C 61.410 118.849,60.285 118.262,59.900 118.136 C 59.515 118.010,59.200 117.748,59.200 117.553 C 59.200 117.359,58.840 117.200,58.400 117.200 C 57.960 117.200,57.600 117.062,57.600 116.894 C 57.600 116.616,54.808 115.242,54.100 115.172 C 53.935 115.156,53.530 114.931,53.200 114.671 C 52.435 114.071,50.996 113.242,49.136 112.332 C 48.331 111.938,47.611 111.458,47.536 111.265 C 47.461 111.073,46.722 110.790,45.893 110.638 L 44.385 110.361 45.733 112.881 M355.615 112.507 C 355.073 113.658,353.832 115.950,352.857 117.600 C 351.229 120.356,350.660 121.342,349.138 124.045 C 348.842 124.570,348.510 125.090,348.399 125.200 C 348.289 125.310,347.934 125.940,347.610 126.600 C 347.286 127.260,346.342 128.825,345.511 130.078 C 344.680 131.331,344.000 132.546,344.000 132.778 C 344.000 133.010,343.820 133.200,343.600 133.200 C 343.380 133.200,343.200 133.470,343.200 133.800 C 343.200 134.130,343.020 134.400,342.800 134.400 C 342.580 134.400,342.400 134.670,342.400 135.000 C 342.400 135.330,342.220 135.600,342.000 135.600 C 341.780 135.600,341.600 135.870,341.600 136.200 C 341.600 136.530,341.441 136.800,341.247 136.800 C 341.052 136.800,340.792 137.115,340.669 137.500 C 340.545 137.885,338.906 140.540,337.025 143.400 C 335.145 146.260,333.336 149.140,333.004 149.800 C 332.672 150.460,331.935 151.540,331.366 152.200 C 330.796 152.860,330.037 153.895,329.679 154.500 C 329.321 155.105,328.886 155.600,328.714 155.600 C 328.541 155.600,328.400 155.825,328.400 156.100 C 328.399 156.375,327.934 157.140,327.365 157.800 C 326.796 158.460,326.037 159.495,325.679 160.100 C 325.321 160.705,324.886 161.200,324.714 161.200 C 324.541 161.200,324.397 161.425,324.393 161.700 C 324.389 161.975,323.950 162.740,323.418 163.400 C 322.886 164.060,320.426 167.300,317.952 170.600 C 315.478 173.900,313.350 176.690,313.224 176.800 C 313.098 176.910,312.489 177.679,311.870 178.509 C 311.252 179.339,310.353 180.420,309.873 180.912 C 309.393 181.403,308.508 182.464,307.906 183.268 C 307.304 184.073,306.584 184.971,306.306 185.265 C 306.028 185.559,305.327 186.430,304.748 187.200 C 304.170 187.970,303.180 189.145,302.548 189.812 C 301.917 190.478,300.789 191.738,300.043 192.612 C 294.597 198.987,277.688 216.397,274.272 219.146 C 272.513 220.562,268.668 223.957,265.920 226.522 C 265.023 227.359,263.639 228.528,262.844 229.120 C 262.050 229.711,261.310 230.295,261.200 230.417 C 261.090 230.539,260.370 231.071,259.600 231.600 C 258.830 232.129,258.110 232.661,258.000 232.782 C 256.641 234.281,240.405 245.600,239.613 245.600 C 239.386 245.600,239.200 245.780,239.200 246.000 C 239.200 246.220,239.003 246.400,238.762 246.400 C 238.521 246.400,237.846 246.739,237.262 247.153 C 235.507 248.397,232.873 249.861,227.466 252.600 L 222.332 255.200 258.743 255.200 C 281.476 255.200,295.242 255.056,295.389 254.817 C 295.519 254.607,295.867 254.527,296.161 254.640 C 296.456 254.753,296.801 254.576,296.927 254.245 C 297.054 253.915,297.797 253.524,298.579 253.378 C 299.361 253.231,300.000 252.995,300.000 252.853 C 300.000 252.711,300.585 252.341,301.300 252.030 C 302.015 251.719,303.743 250.775,305.141 249.932 C 306.538 249.089,307.761 248.400,307.858 248.400 C 307.954 248.400,308.420 248.040,308.892 247.600 C 309.364 247.160,309.987 246.800,310.275 246.800 C 310.564 246.800,310.800 246.659,310.800 246.486 C 310.800 246.314,311.333 245.857,311.985 245.472 C 312.637 245.087,313.402 244.547,313.685 244.273 C 313.968 243.998,314.830 243.336,315.600 242.802 C 316.370 242.267,317.180 241.634,317.400 241.394 C 317.620 241.155,318.610 240.307,319.600 239.510 C 322.279 237.353,325.894 233.777,328.810 230.400 C 330.234 228.750,331.535 227.340,331.700 227.267 C 331.865 227.193,332.000 226.878,332.000 226.567 C 332.000 226.255,332.135 225.999,332.300 225.997 C 332.465 225.996,333.048 225.321,333.596 224.497 C 334.144 223.674,334.709 222.910,334.851 222.800 C 334.993 222.690,335.445 222.044,335.855 221.365 C 336.265 220.685,337.134 219.335,337.787 218.365 C 338.439 217.394,338.988 216.510,339.007 216.400 C 339.143 215.587,340.898 212.400,341.210 212.400 C 341.424 212.400,341.600 212.225,341.600 212.011 C 341.600 211.797,342.029 210.672,342.554 209.511 C 344.794 204.556,345.200 203.587,345.200 203.199 C 345.200 202.974,345.408 202.387,345.662 201.895 C 346.651 199.983,346.800 199.586,346.800 198.872 C 346.800 198.466,346.923 198.010,347.074 197.859 C 347.558 197.375,348.388 194.635,348.394 193.500 C 348.397 192.895,348.580 192.400,348.800 192.400 C 349.020 192.400,349.200 191.781,349.200 191.024 C 349.200 190.267,349.380 189.536,349.600 189.400 C 349.820 189.264,350.000 188.431,350.000 187.549 C 350.000 186.087,350.079 185.966,350.900 186.169 C 351.395 186.292,351.575 186.289,351.300 186.163 C 350.706 185.890,350.626 183.355,351.200 183.000 C 351.420 182.864,351.600 182.234,351.600 181.600 C 351.600 180.966,351.792 180.328,352.028 180.183 C 352.263 180.038,352.402 179.175,352.336 178.267 C 352.237 176.889,352.366 176.541,353.115 176.167 C 353.610 175.921,354.146 175.573,354.307 175.395 C 354.468 175.217,354.387 175.194,354.128 175.342 C 353.142 175.907,352.608 171.813,353.588 171.207 C 353.854 171.043,354.035 170.479,353.991 169.954 C 353.823 167.939,354.013 166.767,354.500 166.830 C 355.484 166.958,356.000 166.793,356.000 166.351 C 356.000 166.021,355.855 166.023,355.453 166.356 C 355.014 166.721,354.864 166.551,354.692 165.491 C 354.398 163.680,354.774 162.000,355.474 162.000 C 355.894 162.000,355.974 161.753,355.764 161.100 C 355.124 159.109,355.281 154.556,355.975 154.985 C 356.132 155.082,356.247 153.453,356.230 151.366 C 356.213 149.256,356.378 147.444,356.600 147.286 C 357.214 146.847,358.262 145.409,357.739 145.723 C 357.034 146.145,356.713 142.150,356.991 136.400 C 357.123 133.650,357.233 130.185,357.235 128.700 C 357.237 127.215,357.406 126.000,357.611 126.000 C 357.825 126.000,358.033 129.447,358.100 134.100 C 358.165 138.555,358.219 135.360,358.220 127.000 C 358.221 118.640,358.168 114.545,358.101 117.900 C 358.029 121.508,357.820 124.000,357.590 124.000 C 357.198 124.000,357.119 122.650,357.042 114.701 C 356.994 109.764,356.943 109.686,355.615 112.507 M41.778 126.800 C 41.778 133.730,41.833 136.565,41.899 133.100 C 41.966 129.635,41.966 123.965,41.899 120.500 C 41.833 117.035,41.778 119.870,41.778 126.800 " stroke="none" fill="#64ac64" fill-rule="evenodd"></path><path id="path2" d="M196.858 2.007 C 195.679 3.103,194.823 4.000,194.954 4.000 C 195.085 4.000,194.667 4.503,194.024 5.117 C 193.381 5.731,192.798 6.485,192.728 6.792 C 192.657 7.099,191.880 8.116,191.000 9.050 C 187.123 13.168,186.400 14.052,186.400 14.673 C 186.400 15.036,186.291 15.224,186.158 15.091 C 185.935 14.869,183.200 18.133,183.200 18.622 C 183.200 18.740,182.750 19.286,182.200 19.836 C 181.650 20.386,181.200 21.000,181.200 21.200 C 181.200 21.400,180.750 22.014,180.200 22.564 C 179.650 23.114,179.200 23.827,179.200 24.148 C 179.200 24.470,179.042 24.793,178.848 24.867 C 178.197 25.113,176.022 28.912,176.277 29.359 C 176.415 29.601,176.388 29.674,176.217 29.519 C 175.843 29.182,174.800 30.143,174.800 30.825 C 174.800 31.089,174.485 31.597,174.100 31.953 C 173.715 32.309,173.342 32.870,173.270 33.200 C 173.199 33.530,172.974 33.860,172.770 33.933 C 172.567 34.007,172.400 34.372,172.400 34.745 C 172.400 35.118,172.040 35.683,171.600 36.000 C 171.160 36.317,170.800 36.897,170.800 37.288 C 170.800 37.680,170.620 38.000,170.400 38.000 C 170.180 38.000,170.000 38.278,170.000 38.617 C 170.000 38.956,169.640 39.620,169.200 40.092 C 168.760 40.564,168.400 41.187,168.400 41.475 C 168.400 41.764,168.220 42.000,168.000 42.000 C 167.780 42.000,167.600 42.360,167.600 42.800 C 167.600 43.240,167.420 43.600,167.200 43.600 C 166.980 43.600,166.800 43.870,166.800 44.200 C 166.800 44.530,166.620 44.800,166.400 44.800 C 166.180 44.800,166.000 45.145,166.000 45.567 C 166.000 45.988,165.865 46.393,165.700 46.467 C 165.535 46.540,164.599 48.220,163.620 50.200 C 162.642 52.180,161.652 53.932,161.420 54.094 C 161.189 54.256,161.157 54.391,161.349 54.394 C 161.541 54.397,161.459 54.689,161.166 55.041 C 160.525 55.813,158.400 60.767,158.400 61.488 C 158.400 61.770,158.220 62.000,158.000 62.000 C 157.780 62.000,157.600 62.461,157.600 63.024 C 157.600 63.604,157.427 63.940,157.200 63.800 C 156.980 63.664,156.800 63.836,156.800 64.182 C 156.800 64.528,156.592 65.213,156.338 65.705 C 155.367 67.582,155.200 68.007,155.200 68.595 C 155.200 68.928,155.020 69.200,154.800 69.200 C 154.580 69.200,154.400 69.661,154.400 70.224 C 154.400 70.787,154.258 71.160,154.085 71.052 C 153.912 70.945,153.730 71.340,153.681 71.929 C 153.633 72.518,153.415 73.060,153.197 73.133 C 152.978 73.207,152.800 73.691,152.800 74.210 C 152.800 74.728,152.620 75.264,152.400 75.400 C 152.180 75.536,152.000 75.997,152.000 76.424 C 152.000 76.851,151.820 77.200,151.600 77.200 C 151.380 77.200,151.200 77.751,151.200 78.424 C 151.200 79.137,151.033 79.544,150.800 79.400 C 150.580 79.264,150.400 79.526,150.400 79.982 C 150.400 80.438,150.220 81.168,150.000 81.605 C 149.780 82.042,149.420 82.758,149.200 83.195 C 148.980 83.632,148.800 84.352,148.800 84.795 C 148.800 85.238,148.615 85.600,148.389 85.600 C 148.149 85.600,148.005 86.553,148.043 87.900 C 148.089 89.567,147.707 91.466,146.654 94.800 C 145.368 98.876,143.037 107.900,140.817 117.400 C 140.406 119.160,139.864 121.950,139.612 123.600 C 139.361 125.250,138.991 127.500,138.789 128.600 C 138.587 129.700,138.329 131.230,138.216 132.000 C 138.103 132.770,137.819 134.480,137.586 135.800 C 137.353 137.120,137.020 139.865,136.847 141.901 C 136.398 147.175,136.222 147.159,133.514 141.600 C 132.496 139.510,129.468 133.300,126.785 127.800 C 124.102 122.300,121.194 116.270,120.324 114.400 C 117.189 107.662,98.011 69.584,90.307 54.800 C 88.873 52.050,86.257 47.010,84.493 43.600 C 82.729 40.190,81.038 36.936,80.736 36.369 C 80.003 34.993,79.200 35.340,79.200 37.033 C 79.200 37.785,79.020 38.400,78.800 38.400 C 78.580 38.400,78.400 38.929,78.400 39.576 C 78.400 40.223,78.240 40.852,78.044 40.973 C 77.849 41.094,77.588 41.779,77.466 42.496 C 77.344 43.213,77.045 44.700,76.801 45.800 C 76.557 46.900,76.296 48.340,76.221 49.000 C 76.146 49.660,75.884 51.520,75.639 53.133 C 75.394 54.746,75.296 56.231,75.420 56.433 C 75.545 56.635,75.457 56.800,75.224 56.800 C 74.966 56.800,74.800 57.896,74.800 59.600 C 74.800 61.200,74.629 62.400,74.400 62.400 C 73.885 62.400,73.849 92.482,74.363 93.020 C 74.563 93.229,74.815 94.930,74.922 96.800 C 75.140 100.579,75.689 104.435,76.801 110.000 C 77.043 111.210,77.421 113.100,77.641 114.200 C 77.861 115.300,78.140 116.874,78.262 117.698 C 78.384 118.522,78.645 119.096,78.842 118.974 C 79.140 118.790,79.415 120.640,79.247 121.700 C 79.221 121.865,79.360 122.000,79.555 122.000 C 79.890 122.000,80.143 122.890,80.663 125.904 C 80.787 126.621,81.049 127.306,81.244 127.427 C 81.440 127.548,81.600 127.981,81.600 128.390 C 81.600 129.606,83.381 130.932,92.000 136.134 C 102.729 142.609,105.590 144.363,106.800 145.208 C 107.350 145.592,108.430 146.266,109.200 146.705 C 114.658 149.819,136.086 163.896,140.000 166.939 C 157.911 180.863,172.687 199.002,183.223 220.000 C 189.109 231.728,192.842 240.489,196.040 250.077 C 198.265 256.748,199.110 256.077,188.685 255.927 L 179.770 255.800 174.585 253.233 C 161.294 246.652,144.246 234.989,131.600 223.828 C 128.850 221.400,125.880 218.783,125.000 218.010 C 121.058 214.551,112.236 205.673,107.103 200.000 C 104.018 196.590,100.842 193.080,100.047 192.200 C 98.477 190.463,97.008 188.736,94.752 185.973 C 93.956 184.998,91.886 182.488,90.152 180.395 C 83.442 172.295,71.759 156.274,65.362 146.399 C 63.581 143.650,60.491 138.880,58.496 135.800 C 56.501 132.720,53.571 127.950,51.985 125.200 C 50.399 122.450,48.763 119.615,48.350 118.900 C 46.370 115.468,45.790 114.441,44.685 112.400 C 44.029 111.190,43.269 109.788,42.996 109.284 C 42.081 107.600,42.002 109.309,42.136 127.727 C 42.272 146.305,42.451 151.768,42.990 153.727 C 43.161 154.348,43.357 156.058,43.427 157.527 C 43.613 161.471,43.982 164.817,44.406 166.400 C 44.613 167.170,44.853 168.456,44.941 169.258 C 45.029 170.060,45.203 170.881,45.328 171.084 C 45.453 171.286,45.599 172.295,45.652 173.326 C 45.706 174.357,45.896 175.200,46.075 175.200 C 46.254 175.200,46.400 176.179,46.400 177.376 C 46.400 178.573,46.580 179.664,46.800 179.800 C 47.020 179.936,47.200 180.656,47.200 181.400 C 47.200 182.144,47.360 182.852,47.556 182.973 C 47.751 183.094,48.009 183.779,48.127 184.496 C 48.485 186.659,48.842 188.156,49.200 189.000 C 49.600 189.943,49.983 191.617,50.274 193.703 C 50.390 194.529,50.645 195.305,50.842 195.426 C 51.039 195.548,51.200 196.177,51.200 196.824 C 51.200 197.471,51.380 198.000,51.600 198.000 C 51.820 198.000,52.000 198.450,52.000 199.000 C 52.000 199.550,52.180 200.000,52.400 200.000 C 52.620 200.000,52.800 200.540,52.800 201.200 C 52.800 201.860,52.980 202.400,53.200 202.400 C 53.420 202.400,53.600 202.681,53.600 203.025 C 53.600 203.915,57.581 212.502,58.100 212.733 C 58.265 212.807,58.400 213.086,58.400 213.354 C 58.400 214.063,59.349 215.993,59.700 215.997 C 59.865 215.999,60.000 216.349,60.000 216.776 C 60.000 217.203,60.157 217.650,60.350 217.769 C 60.542 217.888,61.437 219.203,62.340 220.692 C 63.242 222.182,64.435 223.887,64.990 224.483 C 65.546 225.078,66.000 225.726,66.000 225.923 C 66.000 226.120,66.514 226.819,67.142 227.476 C 67.769 228.133,68.730 229.329,69.277 230.133 C 69.824 230.938,70.390 231.477,70.535 231.331 C 70.681 231.186,70.800 231.272,70.800 231.523 C 70.800 232.118,74.274 235.592,74.572 235.295 C 74.697 235.169,74.800 235.266,74.800 235.510 C 74.800 235.980,78.502 240.000,78.936 240.000 C 79.251 240.000,80.332 240.890,82.703 243.100 C 83.707 244.035,84.729 244.800,84.975 244.800 C 85.222 244.800,85.683 245.160,86.000 245.600 C 86.317 246.040,86.882 246.400,87.255 246.400 C 87.628 246.400,87.993 246.535,88.067 246.700 C 88.275 247.168,91.879 249.600,92.365 249.600 C 92.604 249.600,92.800 249.751,92.800 249.935 C 92.800 250.119,93.970 250.882,95.400 251.630 C 96.830 252.379,98.000 253.128,98.000 253.296 C 98.000 253.463,98.349 253.600,98.776 253.600 C 99.203 253.600,99.666 253.783,99.804 254.007 C 99.942 254.230,100.235 254.302,100.454 254.166 C 100.674 254.031,101.066 254.192,101.327 254.525 C 102.809 256.421,102.049 256.407,195.543 256.304 C 249.019 256.245,270.815 256.128,251.638 256.004 C 228.347 255.852,220.421 255.684,220.838 255.351 C 221.147 255.104,223.053 254.078,225.074 253.072 C 229.804 250.717,233.334 248.773,237.287 246.346 C 239.032 245.276,240.530 244.400,240.616 244.400 C 241.159 244.400,260.660 230.258,261.600 229.182 C 261.710 229.057,262.209 228.674,262.709 228.333 C 263.208 227.992,264.288 227.102,265.109 226.355 C 265.929 225.608,269.660 222.271,273.400 218.940 C 280.847 212.306,289.050 204.040,295.965 196.200 C 296.936 195.100,298.562 193.300,299.579 192.200 C 300.597 191.100,303.038 188.220,305.005 185.800 C 306.971 183.380,308.681 181.310,308.805 181.200 C 310.079 180.064,323.473 162.342,326.793 157.400 C 327.975 155.640,329.438 153.570,330.044 152.800 C 333.821 147.999,352.610 117.393,355.643 111.100 C 356.587 109.143,357.403 108.672,357.724 109.900 C 357.863 110.431,357.918 110.385,357.954 109.708 C 358.002 108.769,356.180 107.926,355.657 108.646 C 355.516 108.841,355.040 109.063,354.600 109.140 C 354.160 109.217,353.690 109.457,353.555 109.674 C 353.421 109.891,353.151 110.072,352.955 110.077 C 352.192 110.097,349.600 111.307,349.600 111.643 C 349.600 111.840,349.240 112.000,348.800 112.000 C 348.360 112.000,348.000 112.149,348.000 112.332 C 348.000 112.514,347.055 113.099,345.900 113.632 C 344.745 114.164,343.740 114.735,343.667 114.900 C 343.593 115.065,343.203 115.200,342.800 115.200 C 342.397 115.200,342.007 115.335,341.933 115.500 C 341.860 115.665,340.945 116.233,339.900 116.763 C 338.855 117.292,338.000 117.877,338.000 118.063 C 338.000 118.248,337.640 118.400,337.200 118.400 C 336.760 118.400,336.400 118.580,336.400 118.800 C 336.400 119.020,336.055 119.200,335.633 119.200 C 335.212 119.200,334.807 119.342,334.733 119.514 C 334.494 120.080,332.092 121.600,331.438 121.600 C 331.087 121.600,330.800 121.780,330.800 122.000 C 330.800 122.220,330.440 122.400,330.000 122.400 C 329.560 122.400,329.200 122.580,329.200 122.800 C 329.200 123.020,328.919 123.200,328.576 123.200 C 328.233 123.200,328.064 123.380,328.200 123.600 C 328.336 123.820,328.077 124.000,327.624 124.000 C 327.171 124.000,326.800 124.180,326.800 124.400 C 326.800 124.620,326.530 124.800,326.200 124.800 C 325.870 124.800,325.600 124.980,325.600 125.200 C 325.600 125.420,325.317 125.600,324.972 125.600 C 324.020 125.600,318.336 129.152,317.200 130.457 C 316.365 131.415,311.918 134.400,311.324 134.400 C 311.225 134.400,310.359 134.940,309.400 135.600 C 308.441 136.260,307.543 136.800,307.406 136.800 C 307.269 136.800,306.096 137.520,304.800 138.400 C 303.504 139.280,302.342 140.000,302.217 140.000 C 302.092 140.000,300.778 140.784,299.295 141.742 C 297.813 142.700,294.620 144.711,292.200 146.211 C 266.168 162.345,257.549 168.478,248.447 177.344 C 231.117 194.227,218.454 213.787,208.533 239.000 C 206.888 243.180,205.375 246.913,205.171 247.295 C 204.967 247.677,204.800 248.341,204.800 248.771 C 204.800 249.201,204.620 249.664,204.400 249.800 C 204.180 249.936,204.000 250.476,204.000 251.000 C 204.000 251.524,203.820 252.064,203.600 252.200 C 203.380 252.336,203.196 252.842,203.191 253.324 C 203.178 254.590,201.882 256.113,200.966 255.937 C 200.213 255.792,200.198 253.566,200.099 127.895 C 200.019 25.979,199.897 0.001,199.499 0.007 C 199.225 0.011,198.036 0.911,196.858 2.007 M318.200 35.200 C 318.064 35.420,317.513 35.600,316.976 35.600 C 316.439 35.600,316.000 35.780,316.000 36.000 C 316.000 36.220,315.550 36.400,315.000 36.400 C 314.450 36.400,314.000 36.580,314.000 36.800 C 314.000 37.020,313.747 37.200,313.438 37.200 C 312.772 37.200,309.459 38.868,309.267 39.300 C 309.193 39.465,308.788 39.600,308.367 39.600 C 307.945 39.600,307.600 39.780,307.600 40.000 C 307.600 40.220,307.240 40.400,306.800 40.400 C 306.360 40.400,306.000 40.580,306.000 40.800 C 306.000 41.020,305.640 41.200,305.200 41.200 C 304.760 41.200,304.400 41.380,304.400 41.600 C 304.400 41.820,304.040 42.000,303.600 42.000 C 303.160 42.000,302.798 42.135,302.796 42.300 C 302.794 42.465,301.984 42.955,300.996 43.390 C 300.008 43.824,299.200 44.276,299.200 44.395 C 299.200 44.514,298.300 45.038,297.200 45.561 C 296.100 46.083,295.200 46.665,295.200 46.855 C 295.200 47.045,294.964 47.200,294.675 47.200 C 294.387 47.200,293.716 47.605,293.185 48.100 C 292.653 48.595,292.085 49.000,291.922 49.000 C 291.759 49.000,291.258 49.315,290.808 49.700 C 290.359 50.085,289.858 50.401,289.695 50.402 C 289.533 50.403,288.825 50.943,288.122 51.602 C 287.419 52.261,286.699 52.801,286.522 52.802 C 286.345 52.803,285.625 53.343,284.922 54.002 C 284.219 54.661,283.475 55.200,283.270 55.200 C 283.065 55.200,282.155 55.920,281.248 56.800 C 280.341 57.680,279.504 58.400,279.389 58.400 C 279.157 58.400,277.301 60.033,274.388 62.800 C 273.346 63.790,272.155 64.870,271.741 65.200 C 269.484 67.001,268.370 68.000,268.619 68.000 C 268.774 68.000,268.113 68.800,267.150 69.777 C 266.188 70.755,264.860 72.159,264.200 72.898 C 263.540 73.637,262.100 75.233,261.000 76.443 C 259.900 77.654,258.379 79.423,257.621 80.373 C 256.862 81.323,256.007 82.335,255.721 82.622 C 255.434 82.908,255.200 83.263,255.200 83.411 C 255.200 83.558,254.660 84.183,254.000 84.800 C 253.340 85.417,252.800 86.209,252.800 86.560 C 252.800 86.912,252.596 87.200,252.346 87.200 C 251.731 87.200,252.153 90.133,253.258 93.542 C 255.186 99.487,255.556 100.743,256.341 104.000 C 256.792 105.870,257.790 110.010,258.560 113.200 C 260.279 120.329,262.971 136.357,263.650 143.500 C 263.927 146.415,264.267 148.800,264.405 148.800 C 264.543 148.800,265.710 146.595,266.998 143.900 C 270.095 137.423,275.367 126.482,279.093 118.800 C 280.747 115.390,283.403 109.900,284.996 106.600 C 290.329 95.554,293.671 88.643,296.410 83.000 C 297.904 79.920,300.380 74.790,301.911 71.600 C 306.138 62.794,309.765 55.275,313.198 48.200 C 314.906 44.680,316.963 40.405,317.770 38.700 C 318.576 36.995,319.453 35.597,319.718 35.594 C 320.015 35.590,319.970 35.439,319.600 35.200 C 318.831 34.703,318.507 34.703,318.200 35.200 M286.118 255.898 C 287.833 255.973,290.533 255.972,292.118 255.897 C 293.703 255.821,292.300 255.759,289.000 255.760 C 285.700 255.761,284.403 255.822,286.118 255.898 " stroke="none" fill="#83c36c" fill-rule="evenodd"></path><path id="path3" d="M296.633 255.500 C 296.468 255.665,293.243 255.890,289.467 256.000 L 282.600 256.200 282.495 271.517 C 282.425 281.776,282.531 287.097,282.816 287.630 C 283.220 288.384,283.695 288.428,291.921 288.475 C 296.694 288.503,303.191 288.597,306.358 288.684 C 310.072 288.787,312.266 288.694,312.538 288.422 C 312.770 288.190,313.374 288.000,313.880 288.000 C 314.386 288.000,314.800 287.862,314.800 287.694 C 314.800 287.526,315.480 287.094,316.311 286.734 C 317.143 286.374,318.538 285.436,319.411 284.649 C 320.285 283.862,321.135 283.214,321.300 283.209 C 321.465 283.204,321.600 282.964,321.600 282.675 C 321.600 282.387,321.967 281.757,322.416 281.275 C 322.864 280.794,323.113 280.400,322.970 280.400 C 322.826 280.400,323.012 279.935,323.384 279.368 C 323.756 278.800,323.968 278.095,323.856 277.801 C 323.743 277.507,323.897 277.172,324.198 277.056 C 324.574 276.912,324.688 276.385,324.563 275.378 C 324.463 274.570,324.605 273.290,324.879 272.533 C 325.280 271.423,325.277 271.095,324.863 270.839 C 324.524 270.629,324.414 269.960,324.540 268.863 C 324.645 267.951,324.586 267.115,324.410 267.006 C 324.233 266.897,323.965 266.311,323.813 265.704 C 323.662 265.097,323.295 264.330,322.997 264.000 C 322.700 263.670,322.438 263.220,322.414 263.000 C 322.390 262.780,322.051 262.232,321.660 261.783 C 321.269 261.333,320.827 260.647,320.677 260.257 C 320.528 259.868,320.223 259.662,320.000 259.800 C 319.777 259.938,319.487 259.770,319.355 259.428 C 319.224 259.085,318.988 258.884,318.831 258.981 C 318.674 259.078,318.293 258.807,317.985 258.379 C 317.676 257.950,317.103 257.600,316.712 257.600 C 316.320 257.600,316.000 257.420,316.000 257.200 C 316.000 256.980,315.460 256.800,314.800 256.800 C 314.140 256.800,313.600 256.620,313.600 256.400 C 313.600 256.180,312.700 256.000,311.600 256.000 C 310.500 256.000,309.600 255.820,309.600 255.600 C 309.600 255.131,297.099 255.034,296.633 255.500 M80.392 259.410 C 80.114 259.745,79.966 260.100,80.064 260.198 C 80.162 260.296,80.546 260.021,80.917 259.588 C 81.289 259.155,81.436 258.800,81.245 258.800 C 81.054 258.800,80.670 259.074,80.392 259.410 M75.884 278.000 C 75.999 278.440,76.341 278.800,76.643 278.800 C 77.063 278.800,77.032 278.613,76.507 278.000 C 76.130 277.560,75.789 277.200,75.749 277.200 C 75.708 277.200,75.769 277.560,75.884 278.000 " stroke="none" fill="#ec8c3c" fill-rule="evenodd"></path><path id="path4" d="M200.099 127.895 C 200.198 253.566,200.213 255.792,200.966 255.937 C 201.882 256.113,203.178 254.590,203.191 253.324 C 203.196 252.842,203.380 252.336,203.600 252.200 C 203.820 252.064,204.000 251.524,204.000 251.000 C 204.000 250.476,204.180 249.936,204.400 249.800 C 204.620 249.664,204.800 249.201,204.800 248.771 C 204.800 248.341,204.967 247.677,205.171 247.295 C 205.375 246.913,206.888 243.180,208.533 239.000 C 218.454 213.787,231.117 194.227,248.447 177.344 C 257.549 168.478,266.168 162.345,292.200 146.211 C 294.620 144.711,297.813 142.700,299.295 141.742 C 300.778 140.784,302.092 140.000,302.217 140.000 C 302.342 140.000,303.504 139.280,304.800 138.400 C 306.096 137.520,307.269 136.800,307.406 136.800 C 307.543 136.800,308.408 136.287,309.328 135.659 C 310.248 135.032,311.180 134.447,311.400 134.359 C 314.809 132.999,318.400 129.769,318.400 128.062 C 318.400 127.588,318.542 127.200,318.715 127.200 C 318.888 127.200,319.074 126.622,319.128 125.916 C 319.182 125.209,319.375 124.534,319.558 124.416 C 319.740 124.297,319.993 123.660,320.119 123.000 C 320.546 120.766,321.802 116.203,322.130 115.693 C 322.309 115.415,322.404 114.785,322.340 114.293 C 322.277 113.802,322.358 113.186,322.521 112.925 C 323.144 111.925,323.321 109.081,322.743 109.380 C 322.444 109.534,322.533 109.388,322.940 109.056 C 323.861 108.306,324.192 105.200,323.350 105.200 C 323.048 105.200,322.777 105.515,322.748 105.900 C 322.628 107.528,322.443 108.687,322.080 110.080 C 321.867 110.894,321.777 111.643,321.879 111.745 C 321.981 111.847,321.794 112.351,321.464 112.865 C 321.124 113.395,320.933 114.364,321.024 115.100 C 321.112 115.815,321.029 116.400,320.839 116.400 C 320.279 116.400,320.008 118.067,320.438 118.870 C 320.732 119.421,320.701 119.584,320.317 119.506 C 320.007 119.442,319.745 119.880,319.664 120.599 C 319.589 121.258,319.376 121.891,319.190 122.006 C 319.004 122.121,318.791 122.662,318.716 123.207 C 318.641 123.753,318.414 124.465,318.212 124.789 C 318.009 125.112,317.881 125.877,317.928 126.489 C 317.975 127.100,317.852 127.600,317.656 127.600 C 317.460 127.600,317.190 128.095,317.055 128.700 C 316.680 130.383,312.124 134.000,310.379 134.000 C 310.170 134.000,310.000 134.180,310.000 134.400 C 310.000 134.620,309.807 134.800,309.572 134.800 C 309.337 134.800,308.359 135.340,307.400 136.000 C 306.441 136.660,305.497 137.200,305.303 137.200 C 305.109 137.200,304.594 137.515,304.158 137.900 C 303.153 138.788,301.209 139.983,300.300 140.271 C 299.915 140.393,299.600 140.652,299.600 140.847 C 299.600 141.041,299.330 141.200,299.000 141.200 C 298.670 141.200,298.400 141.380,298.400 141.600 C 298.400 141.820,298.217 142.000,297.994 142.000 C 297.770 142.000,296.645 142.603,295.494 143.341 C 290.227 146.714,284.608 150.215,284.223 150.363 C 283.990 150.453,281.961 151.758,279.713 153.263 C 277.466 154.768,275.441 156.000,275.213 156.000 C 274.986 156.000,274.800 156.180,274.800 156.400 C 274.800 156.620,274.564 156.800,274.275 156.800 C 273.987 156.800,273.364 157.160,272.892 157.600 C 272.420 158.040,271.926 158.400,271.795 158.400 C 271.664 158.400,270.490 159.124,269.186 160.009 C 265.771 162.328,265.600 162.359,265.600 160.643 C 265.600 159.849,265.420 159.200,265.200 159.200 C 264.980 159.200,264.800 160.055,264.799 161.100 C 264.798 162.940,264.733 163.044,262.734 164.400 C 261.599 165.170,260.474 165.983,260.235 166.206 C 259.996 166.429,258.990 167.234,258.000 167.994 C 257.010 168.755,255.930 169.654,255.600 169.993 C 255.270 170.332,254.366 171.080,253.591 171.655 C 251.990 172.844,243.087 181.577,240.388 184.606 C 238.029 187.254,235.145 190.706,234.414 191.757 C 234.092 192.221,233.413 193.050,232.904 193.600 C 231.864 194.723,224.800 204.996,224.800 205.384 C 224.800 205.521,224.440 206.020,224.000 206.492 C 223.560 206.964,223.200 207.587,223.200 207.875 C 223.200 208.164,223.041 208.400,222.847 208.400 C 222.652 208.400,222.393 208.715,222.271 209.100 C 222.054 209.785,220.796 212.004,220.400 212.400 C 219.707 213.093,213.950 224.545,211.151 230.800 C 210.511 232.230,209.810 233.713,209.594 234.095 C 209.377 234.477,209.200 235.152,209.200 235.595 C 209.200 236.038,209.020 236.400,208.800 236.400 C 208.580 236.400,208.400 236.749,208.400 237.176 C 208.400 237.603,208.220 238.064,208.000 238.200 C 207.780 238.336,207.600 238.887,207.600 239.424 C 207.600 239.961,207.420 240.400,207.200 240.400 C 206.980 240.400,206.800 240.672,206.800 241.005 C 206.800 241.338,206.620 241.968,206.400 242.405 C 206.180 242.842,205.820 243.558,205.600 243.995 C 205.380 244.432,205.200 245.116,205.200 245.515 C 205.200 245.914,205.052 246.411,204.872 246.620 C 204.692 246.829,204.119 248.350,203.600 250.000 C 203.081 251.650,202.508 253.171,202.328 253.380 C 202.148 253.589,202.000 254.084,202.000 254.480 C 202.000 254.933,201.704 255.200,201.200 255.200 C 200.402 255.200,200.400 254.936,200.408 128.100 L 200.415 1.000 202.708 3.425 C 203.968 4.758,206.080 7.165,207.400 8.773 C 208.720 10.381,210.565 12.548,211.500 13.590 C 212.435 14.631,213.200 15.609,213.200 15.763 C 213.200 15.917,213.739 16.619,214.398 17.322 C 215.057 18.025,215.597 18.825,215.598 19.100 C 215.599 19.375,215.741 19.600,215.914 19.600 C 216.086 19.600,216.549 20.145,216.943 20.811 C 217.336 21.477,218.050 22.422,218.530 22.911 C 219.009 23.400,219.622 24.295,219.892 24.900 C 220.162 25.505,220.567 26.000,220.791 26.000 C 221.016 26.000,221.200 26.174,221.200 26.386 C 221.200 26.598,222.190 28.307,223.400 30.182 C 224.610 32.058,225.600 33.759,225.600 33.963 C 225.600 34.167,225.735 34.393,225.900 34.467 C 226.276 34.634,227.575 36.764,227.871 37.700 C 227.993 38.085,228.252 38.400,228.447 38.400 C 228.641 38.400,228.800 38.593,228.800 38.828 C 228.800 39.063,229.308 40.008,229.929 40.928 C 230.551 41.848,231.661 43.815,232.398 45.300 C 233.134 46.785,233.886 48.000,234.068 48.000 C 234.251 48.000,234.400 48.360,234.400 48.800 C 234.400 49.240,234.580 49.600,234.800 49.600 C 235.020 49.600,235.200 49.949,235.200 50.376 C 235.200 50.803,235.383 51.266,235.607 51.404 C 235.830 51.542,235.921 51.804,235.809 51.986 C 235.696 52.167,235.874 52.419,236.202 52.546 C 236.531 52.672,236.800 53.051,236.800 53.387 C 236.800 53.724,236.960 54.000,237.155 54.000 C 237.351 54.000,237.631 54.639,237.778 55.421 C 237.924 56.203,238.293 56.937,238.597 57.054 C 238.901 57.171,239.052 57.520,238.933 57.830 C 238.814 58.140,239.011 58.506,239.370 58.644 C 239.794 58.806,239.940 59.160,239.785 59.647 C 239.654 60.061,239.709 60.400,239.909 60.400 C 240.109 60.400,240.518 61.165,240.819 62.100 C 241.120 63.035,241.552 63.927,241.780 64.083 C 242.007 64.239,242.196 64.599,242.200 64.883 C 242.206 65.356,243.134 67.589,244.034 69.295 C 244.235 69.677,244.400 70.262,244.400 70.595 C 244.400 70.928,244.645 71.200,244.945 71.200 C 245.303 71.200,245.427 71.526,245.307 72.153 C 245.207 72.677,245.322 73.228,245.562 73.377 C 245.803 73.525,246.000 73.997,246.000 74.424 C 246.000 74.851,246.180 75.200,246.400 75.200 C 246.620 75.200,246.800 75.639,246.800 76.176 C 246.800 76.713,246.980 77.264,247.200 77.400 C 247.420 77.536,247.600 78.087,247.600 78.624 C 247.600 79.161,247.780 79.600,248.000 79.600 C 248.220 79.600,248.400 79.872,248.400 80.205 C 248.400 80.538,248.580 81.168,248.800 81.605 C 249.020 82.042,249.380 82.758,249.600 83.195 C 249.820 83.632,250.000 84.352,250.000 84.795 C 250.000 85.238,250.180 85.600,250.400 85.600 C 250.620 85.600,250.800 86.129,250.800 86.776 C 250.800 87.423,250.983 88.066,251.207 88.204 C 251.430 88.342,251.509 88.624,251.381 88.830 C 251.174 89.165,251.557 90.719,252.410 93.000 C 252.574 93.440,252.927 94.610,253.193 95.600 C 253.460 96.590,253.840 97.713,254.039 98.095 C 254.238 98.477,254.400 99.141,254.400 99.571 C 254.400 100.001,254.580 100.464,254.800 100.600 C 255.020 100.736,255.200 101.456,255.200 102.200 C 255.200 102.944,255.380 103.664,255.600 103.800 C 255.820 103.936,256.000 104.656,256.000 105.400 C 256.000 106.144,256.180 106.864,256.400 107.000 C 256.620 107.136,256.800 107.856,256.800 108.600 C 256.800 109.344,256.961 110.052,257.158 110.174 C 257.355 110.295,257.614 111.071,257.735 111.897 C 258.152 114.752,258.456 116.203,258.802 117.000 C 258.994 117.440,259.258 118.520,259.388 119.400 C 259.519 120.280,259.801 122.035,260.013 123.300 C 260.899 128.567,261.193 130.321,261.573 132.600 C 262.253 136.684,263.705 149.232,263.886 152.600 C 264.118 156.912,264.798 157.490,264.805 153.380 C 264.810 150.439,264.945 149.919,266.605 146.464 C 267.592 144.410,268.400 142.664,268.400 142.584 C 268.400 142.505,269.570 140.055,271.000 137.139 C 272.430 134.224,273.600 131.605,273.600 131.319 C 273.600 131.034,273.780 130.800,274.000 130.800 C 274.220 130.800,274.400 130.440,274.400 130.000 C 274.400 129.560,274.580 129.200,274.800 129.200 C 275.020 129.200,275.200 128.840,275.200 128.400 C 275.200 127.960,275.380 127.600,275.600 127.600 C 275.820 127.600,276.000 127.240,276.000 126.800 C 276.000 126.360,276.180 126.000,276.400 126.000 C 276.620 126.000,276.800 125.780,276.800 125.511 C 276.800 125.243,278.042 122.498,279.561 119.411 C 281.080 116.325,283.260 111.820,284.406 109.400 C 287.606 102.642,291.213 95.198,296.851 83.713 C 299.683 77.944,302.000 73.139,302.000 73.033 C 302.000 72.927,303.170 70.455,304.600 67.539 C 306.030 64.624,307.200 62.005,307.200 61.719 C 307.200 61.434,307.380 61.200,307.600 61.200 C 307.820 61.200,308.000 60.840,308.000 60.400 C 308.000 59.960,308.180 59.600,308.400 59.600 C 308.620 59.600,308.800 59.240,308.800 58.800 C 308.800 58.360,308.980 58.000,309.200 58.000 C 309.420 58.000,309.600 57.640,309.600 57.200 C 309.600 56.760,309.780 56.400,310.000 56.400 C 310.220 56.400,310.399 56.175,310.398 55.900 C 310.397 55.625,311.678 52.790,313.246 49.600 C 314.814 46.410,316.650 42.630,317.326 41.200 C 318.947 37.772,319.176 37.482,319.829 38.024 C 320.117 38.263,320.244 38.741,320.111 39.087 C 319.973 39.446,320.162 39.929,320.551 40.214 C 320.992 40.536,321.167 41.068,321.048 41.723 C 320.947 42.280,321.110 43.065,321.409 43.468 C 321.708 43.870,321.872 44.560,321.772 45.000 C 321.550 45.987,322.155 46.998,322.750 46.631 C 323.183 46.363,323.156 45.570,322.672 44.400 C 322.536 44.070,322.344 43.260,322.245 42.600 C 322.147 41.940,322.037 41.400,322.002 41.400 C 321.967 41.400,321.874 41.040,321.795 40.600 C 321.716 40.160,321.439 39.080,321.178 38.200 C 320.918 37.320,320.643 36.375,320.565 36.100 C 320.206 34.819,319.134 35.816,317.770 38.700 C 316.963 40.405,314.906 44.680,313.198 48.200 C 309.765 55.275,306.138 62.794,301.911 71.600 C 300.380 74.790,297.904 79.920,296.410 83.000 C 293.671 88.643,290.329 95.554,284.996 106.600 C 283.403 109.900,280.747 115.390,279.093 118.800 C 275.367 126.482,270.095 137.423,266.998 143.900 C 265.710 146.595,264.543 148.800,264.405 148.800 C 264.267 148.800,263.927 146.415,263.650 143.500 C 262.971 136.357,260.279 120.329,258.560 113.200 C 257.790 110.010,256.790 105.870,256.337 104.000 C 255.534 100.682,254.684 97.811,253.098 93.055 C 252.668 91.765,252.220 89.650,252.102 88.355 C 251.985 87.060,251.734 86.000,251.544 86.000 C 251.355 86.000,251.200 85.727,251.200 85.394 C 251.200 84.424,250.234 81.600,249.903 81.600 C 249.736 81.600,249.600 81.161,249.600 80.624 C 249.600 80.087,249.420 79.536,249.200 79.400 C 248.980 79.264,248.800 78.713,248.800 78.176 C 248.800 77.639,248.620 77.200,248.400 77.200 C 248.180 77.200,248.000 76.840,248.000 76.400 C 248.000 75.960,247.820 75.600,247.600 75.600 C 247.380 75.600,247.200 75.060,247.200 74.400 C 247.200 73.740,247.020 73.200,246.800 73.200 C 246.580 73.200,246.400 72.851,246.400 72.424 C 246.400 71.997,246.220 71.536,246.000 71.400 C 245.780 71.264,245.600 70.713,245.600 70.176 C 245.600 69.639,245.420 69.200,245.200 69.200 C 244.980 69.200,244.800 68.840,244.800 68.400 C 244.800 67.960,244.620 67.600,244.400 67.600 C 244.180 67.600,244.000 67.321,244.000 66.981 C 244.000 66.640,243.640 65.616,243.200 64.706 C 242.760 63.795,242.400 62.814,242.400 62.525 C 242.400 62.236,242.220 62.000,242.000 62.000 C 241.780 62.000,241.600 61.640,241.600 61.200 C 241.600 60.760,241.420 60.400,241.200 60.400 C 240.980 60.400,240.800 60.147,240.800 59.838 C 240.800 59.529,240.463 58.584,240.052 57.738 C 236.237 49.894,233.069 43.831,232.700 43.667 C 232.535 43.593,232.400 43.188,232.400 42.767 C 232.400 42.345,232.242 42.000,232.049 42.000 C 231.855 42.000,231.473 41.460,231.200 40.800 C 230.927 40.140,230.545 39.600,230.351 39.600 C 230.158 39.600,230.000 39.322,230.000 38.983 C 230.000 38.644,229.640 37.980,229.200 37.508 C 228.760 37.036,228.400 36.413,228.400 36.125 C 228.400 35.836,228.220 35.600,228.000 35.600 C 227.780 35.600,227.600 35.240,227.600 34.800 C 227.600 34.360,227.420 34.000,227.200 34.000 C 226.980 34.000,226.800 33.730,226.800 33.400 C 226.800 33.070,226.620 32.800,226.400 32.800 C 226.180 32.800,226.000 32.612,226.000 32.383 C 226.000 32.154,225.640 31.580,225.200 31.108 C 224.760 30.636,224.400 30.013,224.400 29.725 C 224.400 29.436,224.220 29.200,224.000 29.200 C 223.780 29.200,223.600 28.963,223.600 28.672 C 223.600 28.223,221.391 24.930,219.996 23.300 C 219.761 23.025,219.678 22.800,219.813 22.800 C 219.947 22.800,219.819 22.552,219.529 22.249 C 219.238 21.946,218.730 21.294,218.400 20.800 C 218.070 20.306,217.575 19.667,217.300 19.380 C 217.025 19.092,216.800 18.756,216.800 18.633 C 216.800 18.376,215.769 17.067,214.600 15.840 C 214.160 15.378,213.800 14.883,213.800 14.741 C 213.800 14.509,211.128 11.355,208.992 9.066 C 208.548 8.590,207.290 7.030,206.197 5.600 C 203.860 2.542,201.289 -0.000,200.534 0.000 C 200.088 0.000,200.015 21.272,200.099 127.895 M80.275 35.500 C 80.412 35.885,80.658 36.380,80.821 36.600 C 80.984 36.820,82.599 39.880,84.409 43.400 C 86.220 46.920,88.873 52.050,90.307 54.800 C 98.011 69.584,117.189 107.662,120.324 114.400 C 121.194 116.270,124.102 122.300,126.785 127.800 C 129.468 133.300,132.496 139.510,133.514 141.600 C 136.222 147.159,136.398 147.175,136.847 141.901 C 137.020 139.865,137.353 137.120,137.586 135.800 C 137.819 134.480,138.103 132.770,138.216 132.000 C 138.329 131.230,138.587 129.700,138.789 128.600 C 138.991 127.500,139.361 125.250,139.612 123.600 C 139.864 121.950,140.406 119.160,140.817 117.400 C 142.990 108.101,145.376 98.841,146.756 94.351 C 148.183 89.711,148.472 87.200,147.580 87.200 C 147.401 87.200,147.138 86.834,146.996 86.387 C 146.854 85.940,146.302 85.138,145.769 84.605 C 145.236 84.072,144.800 83.438,144.800 83.195 C 144.800 82.952,144.620 82.864,144.400 83.000 C 144.180 83.136,144.000 83.044,144.000 82.795 C 144.000 82.546,143.775 82.114,143.500 81.835 C 143.225 81.555,142.550 80.727,142.000 79.995 C 140.753 78.333,138.817 76.161,136.100 73.373 C 134.945 72.187,134.000 71.109,134.000 70.977 C 134.000 70.665,129.339 66.000,129.028 66.000 C 128.898 66.000,127.322 64.560,125.527 62.800 C 123.731 61.040,122.117 59.600,121.941 59.600 C 121.765 59.600,120.806 58.785,119.811 57.789 C 118.815 56.794,117.995 56.119,117.988 56.289 C 117.981 56.460,117.792 56.285,117.568 55.900 C 117.344 55.515,116.979 55.200,116.757 55.200 C 116.329 55.200,113.828 53.330,111.811 51.502 C 111.145 50.898,110.375 50.403,110.100 50.402 C 109.825 50.401,109.600 50.220,109.600 50.000 C 109.600 49.780,109.330 49.600,109.000 49.600 C 108.670 49.600,108.400 49.420,108.400 49.200 C 108.400 48.980,108.222 48.800,108.003 48.800 C 107.785 48.800,106.782 48.170,105.773 47.400 C 104.764 46.630,103.769 46.000,103.561 46.000 C 103.354 46.000,102.487 45.560,101.636 45.023 C 100.785 44.485,99.978 44.155,99.844 44.289 C 99.710 44.424,99.600 44.314,99.600 44.046 C 99.600 43.778,99.060 43.370,98.400 43.140 C 97.740 42.910,97.200 42.549,97.200 42.337 C 97.200 42.126,97.035 42.055,96.832 42.180 C 96.630 42.305,96.193 42.136,95.861 41.804 C 95.529 41.472,94.974 41.200,94.629 41.200 C 94.283 41.200,94.000 41.020,94.000 40.800 C 94.000 40.580,93.766 40.400,93.480 40.400 C 92.744 40.400,90.807 39.459,90.803 39.100 C 90.801 38.935,90.440 38.800,90.000 38.800 C 89.560 38.800,89.200 38.620,89.200 38.400 C 89.200 38.180,88.840 38.000,88.400 38.000 C 87.960 38.000,87.600 37.820,87.600 37.600 C 87.600 37.380,87.150 37.200,86.600 37.200 C 86.050 37.200,85.600 37.020,85.600 36.800 C 85.600 36.278,84.121 36.280,83.798 36.803 C 83.661 37.024,83.876 37.309,84.275 37.436 C 84.674 37.563,85.692 38.011,86.538 38.433 C 87.384 38.855,88.329 39.200,88.638 39.200 C 88.947 39.200,89.200 39.380,89.200 39.600 C 89.200 39.820,89.459 40.000,89.775 40.000 C 90.402 40.000,94.167 41.972,96.393 43.465 C 97.159 43.979,97.928 44.400,98.101 44.400 C 98.274 44.400,99.132 44.852,100.008 45.405 C 100.884 45.958,101.600 46.311,101.600 46.189 C 101.600 46.068,101.994 46.336,102.475 46.784 C 102.957 47.233,103.507 47.600,103.697 47.600 C 104.090 47.600,108.720 50.679,109.529 51.478 C 109.819 51.765,110.211 52.000,110.400 52.000 C 110.589 52.000,110.981 52.233,111.271 52.519 C 111.562 52.804,113.060 53.967,114.600 55.103 C 116.140 56.239,117.839 57.580,118.375 58.084 C 118.911 58.588,119.882 59.398,120.532 59.885 C 122.075 61.039,129.223 67.705,131.344 69.966 C 132.255 70.937,134.078 72.827,135.396 74.166 C 136.714 75.505,138.379 77.367,139.096 78.303 C 140.344 79.934,142.034 81.928,143.100 83.027 C 143.375 83.311,143.600 83.654,143.600 83.790 C 143.600 83.925,144.050 84.486,144.600 85.036 C 145.150 85.586,145.600 86.165,145.600 86.322 C 145.600 86.480,146.057 87.101,146.616 87.703 C 147.555 88.716,147.598 88.927,147.196 90.499 C 146.634 92.699,144.432 99.929,143.963 101.119 C 143.763 101.624,143.600 102.559,143.600 103.195 C 143.600 103.832,143.420 104.464,143.200 104.600 C 142.980 104.736,142.800 105.456,142.800 106.200 C 142.800 106.944,142.620 107.664,142.400 107.800 C 142.180 107.936,142.000 108.746,142.000 109.600 C 142.000 110.454,141.820 111.264,141.600 111.400 C 141.380 111.536,141.200 112.256,141.200 113.000 C 141.200 113.744,141.020 114.464,140.800 114.600 C 140.580 114.736,140.400 115.456,140.400 116.200 C 140.400 116.944,140.220 117.664,140.000 117.800 C 139.780 117.936,139.600 118.901,139.600 119.944 C 139.600 120.987,139.437 122.011,139.237 122.220 C 139.037 122.429,138.772 123.500,138.648 124.600 C 138.523 125.700,138.317 127.500,138.190 128.600 C 138.062 129.700,137.797 130.960,137.600 131.400 C 137.235 132.216,137.049 133.546,136.450 139.648 C 135.900 145.257,136.252 145.644,129.868 132.400 C 129.390 131.410,128.865 130.540,128.700 130.467 C 128.535 130.393,128.400 129.988,128.400 129.567 C 128.400 129.145,128.220 128.800,128.000 128.800 C 127.780 128.800,127.600 128.566,127.600 128.280 C 127.600 127.544,126.659 125.607,126.300 125.603 C 126.135 125.601,126.000 125.376,126.000 125.103 C 126.000 124.830,125.209 122.985,124.241 121.003 C 123.274 119.021,121.544 115.420,120.396 113.000 C 115.983 103.692,112.631 96.995,112.322 96.867 C 112.145 96.793,112.000 96.388,112.000 95.967 C 112.000 95.545,111.820 95.200,111.600 95.200 C 111.380 95.200,111.200 94.840,111.200 94.400 C 111.200 93.960,111.020 93.600,110.800 93.600 C 110.580 93.600,110.400 93.240,110.400 92.800 C 110.400 92.360,110.220 92.000,110.000 92.000 C 109.780 92.000,109.600 91.640,109.600 91.200 C 109.600 90.760,109.420 90.400,109.200 90.400 C 108.980 90.400,108.800 90.055,108.800 89.633 C 108.800 89.212,108.665 88.807,108.500 88.733 C 108.335 88.660,105.265 82.750,101.678 75.600 C 93.984 60.267,92.303 57.046,91.900 56.867 C 91.735 56.793,91.600 56.388,91.600 55.967 C 91.600 55.545,91.420 55.200,91.200 55.200 C 90.980 55.200,90.800 54.840,90.800 54.400 C 90.800 53.960,90.620 53.600,90.400 53.600 C 90.180 53.600,90.000 53.255,90.000 52.833 C 90.000 52.412,89.865 52.007,89.700 51.933 C 89.465 51.829,82.638 38.598,82.067 37.140 C 81.993 36.953,82.298 36.800,82.743 36.800 C 83.821 36.800,84.242 36.054,83.325 35.768 C 82.926 35.643,82.287 35.375,81.905 35.171 C 80.761 34.560,79.995 34.715,80.275 35.500 M322.673 47.460 C 322.237 47.896,322.356 49.575,322.891 50.526 C 323.161 51.007,323.393 52.446,323.408 53.725 C 323.425 55.189,323.629 56.171,323.960 56.375 C 324.318 56.596,324.398 57.099,324.211 57.950 C 323.890 59.410,324.284 61.600,324.867 61.600 C 325.289 61.600,325.165 59.474,324.426 54.000 C 324.204 52.350,323.954 50.316,323.872 49.481 C 323.718 47.921,323.158 46.976,322.673 47.460 M325.080 63.217 C 324.963 63.662,324.916 65.415,324.975 67.113 C 325.034 68.811,325.108 71.066,325.141 72.124 C 325.277 76.562,326.000 73.262,326.000 68.200 C 326.000 63.301,325.610 61.189,325.080 63.217 M325.145 82.476 C 324.942 88.804,325.044 92.004,325.463 92.422 C 325.813 92.773,325.938 91.472,325.977 87.075 C 326.009 83.442,325.874 81.169,325.614 81.009 C 325.356 80.849,325.179 81.400,325.145 82.476 M324.585 94.025 C 323.789 95.312,324.007 99.890,324.840 99.375 C 325.179 99.166,325.297 93.600,324.963 93.600 C 324.899 93.600,324.729 93.791,324.585 94.025 M323.374 101.397 C 323.078 102.976,323.418 104.800,324.008 104.800 C 324.223 104.800,324.400 103.720,324.400 102.400 C 324.400 99.774,323.790 99.178,323.374 101.397 M42.800 108.920 C 42.800 109.206,42.968 109.611,43.173 109.820 C 43.378 110.029,44.071 111.190,44.711 112.400 C 45.788 114.434,46.300 115.348,48.350 118.900 C 48.763 119.615,50.399 122.450,51.985 125.200 C 53.571 127.950,56.501 132.720,58.496 135.800 C 60.491 138.880,63.581 143.650,65.362 146.399 C 71.759 156.274,83.442 172.295,90.152 180.395 C 91.886 182.488,93.956 184.998,94.752 185.973 C 97.008 188.736,98.477 190.463,100.047 192.200 C 100.842 193.080,104.018 196.590,107.103 200.000 C 112.236 205.673,121.058 214.551,125.000 218.010 C 125.880 218.783,128.850 221.400,131.600 223.828 C 144.246 234.989,161.294 246.652,174.585 253.233 L 179.770 255.800 188.685 255.927 C 199.110 256.077,198.265 256.748,196.040 250.077 C 190.052 232.126,180.185 212.343,170.465 198.800 C 159.515 183.544,147.182 171.462,132.600 161.706 C 127.195 158.090,111.341 147.927,109.200 146.705 C 108.430 146.266,107.350 145.592,106.800 145.208 C 105.578 144.355,102.621 142.543,92.000 136.138 C 87.490 133.419,83.260 130.679,82.600 130.049 C 81.940 129.420,80.995 128.779,80.500 128.626 C 80.005 128.472,79.600 128.159,79.600 127.930 C 79.600 127.702,79.345 127.612,79.033 127.732 C 78.721 127.852,78.363 127.679,78.236 127.349 C 78.109 127.019,77.848 126.846,77.656 126.965 C 77.464 127.084,76.985 126.825,76.591 126.391 C 76.198 125.956,75.544 125.600,75.138 125.600 C 74.732 125.600,74.400 125.454,74.400 125.275 C 74.400 125.096,73.770 124.702,73.000 124.400 C 72.230 124.098,71.600 123.704,71.600 123.525 C 71.600 123.346,71.229 123.200,70.776 123.200 C 70.323 123.200,70.064 123.020,70.200 122.800 C 70.336 122.580,70.167 122.400,69.824 122.400 C 69.481 122.400,69.200 122.220,69.200 122.000 C 69.200 121.780,68.862 121.600,68.449 121.600 C 68.036 121.600,67.477 121.334,67.208 121.009 C 66.938 120.684,65.701 119.928,64.459 119.328 C 63.216 118.728,62.110 118.126,62.000 117.989 C 61.890 117.852,60.990 117.304,60.000 116.770 C 59.010 116.237,58.110 115.710,58.000 115.600 C 57.890 115.490,57.543 115.344,57.228 115.276 C 56.914 115.208,56.166 114.803,55.566 114.376 C 54.967 113.949,54.189 113.600,53.838 113.600 C 53.487 113.600,53.200 113.420,53.200 113.200 C 53.200 112.980,53.028 112.800,52.818 112.800 C 52.607 112.800,51.509 112.254,50.377 111.587 C 49.245 110.919,48.120 110.334,47.876 110.287 C 47.632 110.239,46.634 109.795,45.657 109.300 C 43.640 108.278,42.800 108.166,42.800 108.920 M355.643 111.100 C 352.610 117.393,333.821 147.999,330.044 152.800 C 329.438 153.570,327.975 155.640,326.793 157.400 C 323.473 162.342,310.079 180.064,308.805 181.200 C 308.681 181.310,306.971 183.380,305.005 185.800 C 303.038 188.220,300.597 191.100,299.579 192.200 C 298.562 193.300,296.936 195.100,295.965 196.200 C 289.050 204.040,280.847 212.306,273.400 218.940 C 269.660 222.271,265.929 225.608,265.109 226.355 C 264.288 227.102,263.208 227.992,262.709 228.333 C 262.209 228.674,261.710 229.057,261.600 229.182 C 260.660 230.258,241.159 244.400,240.616 244.400 C 240.530 244.400,239.032 245.276,237.287 246.346 C 233.313 248.786,229.770 250.735,224.765 253.237 C 222.613 254.313,220.739 255.375,220.602 255.596 C 220.304 256.080,276.065 256.115,289.000 255.640 L 297.400 255.331 300.858 253.490 C 302.759 252.477,304.424 251.758,304.558 251.891 C 304.691 252.024,304.800 251.923,304.800 251.667 C 304.800 251.410,305.036 251.200,305.325 251.200 C 305.613 251.200,306.198 250.885,306.625 250.500 C 307.051 250.115,307.895 249.545,308.500 249.232 C 309.105 248.920,309.600 248.515,309.600 248.332 C 309.600 248.150,309.971 248.000,310.424 248.000 C 310.877 248.000,311.136 247.820,311.000 247.600 C 310.864 247.380,310.956 247.200,311.205 247.200 C 311.454 247.200,311.929 246.928,312.261 246.596 C 312.593 246.264,313.058 246.112,313.294 246.258 C 313.549 246.415,313.607 246.336,313.438 246.062 C 313.269 245.788,313.407 245.600,313.776 245.600 C 314.119 245.600,314.400 245.420,314.400 245.200 C 314.400 244.980,314.681 244.800,315.024 244.800 C 315.367 244.800,315.536 244.620,315.400 244.400 C 315.264 244.180,315.534 244.000,316.000 244.000 C 316.466 244.000,316.736 243.820,316.600 243.600 C 316.464 243.380,316.561 243.200,316.816 243.200 C 317.071 243.200,317.756 242.704,318.340 242.099 C 318.923 241.493,320.113 240.465,320.983 239.815 C 322.776 238.476,326.799 234.511,326.801 234.082 C 326.802 233.927,327.323 233.451,327.959 233.025 C 328.596 232.599,329.434 231.711,329.823 231.053 C 330.212 230.395,330.996 229.364,331.565 228.762 C 332.134 228.159,332.870 227.269,333.200 226.784 C 333.530 226.299,333.987 225.699,334.216 225.451 C 335.443 224.119,337.600 221.018,337.600 220.585 C 337.600 220.310,337.870 219.982,338.200 219.855 C 338.530 219.729,338.800 219.362,338.800 219.041 C 338.800 218.720,339.025 218.212,339.300 217.913 C 340.082 217.063,340.800 215.670,340.800 215.005 C 340.800 214.672,340.980 214.400,341.200 214.400 C 341.420 214.400,341.600 214.040,341.600 213.600 C 341.600 213.160,341.780 212.800,342.000 212.800 C 342.220 212.800,342.400 212.440,342.400 212.000 C 342.400 211.560,342.580 211.200,342.800 211.200 C 343.020 211.200,343.200 210.840,343.200 210.400 C 343.200 209.960,343.380 209.600,343.600 209.600 C 343.820 209.600,344.000 209.240,344.000 208.800 C 344.000 208.360,344.180 208.000,344.400 208.000 C 344.620 208.000,344.800 207.728,344.800 207.395 C 344.800 207.062,344.957 206.477,345.150 206.095 C 346.752 202.914,347.200 201.798,347.200 200.986 C 347.200 200.470,347.380 199.936,347.600 199.800 C 347.820 199.664,348.000 199.203,348.000 198.776 C 348.000 198.349,348.180 198.000,348.400 198.000 C 348.620 198.000,348.800 197.460,348.800 196.800 C 348.800 196.140,348.943 195.600,349.118 195.600 C 349.293 195.600,349.481 194.925,349.536 194.100 C 349.590 193.275,349.807 192.540,350.018 192.467 C 350.228 192.393,350.400 191.628,350.400 190.767 C 350.400 189.905,350.591 189.200,350.824 189.200 C 351.420 189.200,351.117 186.300,350.500 186.098 C 350.156 185.984,350.000 186.434,350.000 187.543 C 350.000 188.428,349.820 189.264,349.600 189.400 C 349.380 189.536,349.200 190.267,349.200 191.024 C 349.200 191.781,349.020 192.400,348.800 192.400 C 348.580 192.400,348.397 192.895,348.394 193.500 C 348.388 194.635,347.558 197.375,347.074 197.859 C 346.923 198.010,346.800 198.466,346.800 198.872 C 346.800 199.278,346.620 199.968,346.400 200.405 C 346.180 200.842,345.820 201.558,345.600 201.995 C 345.380 202.432,345.200 202.974,345.200 203.199 C 345.200 203.587,344.794 204.556,342.554 209.511 C 342.029 210.672,341.600 211.797,341.600 212.011 C 341.600 212.225,341.424 212.400,341.210 212.400 C 340.898 212.400,339.143 215.587,339.007 216.400 C 338.988 216.510,338.439 217.394,337.787 218.365 C 337.134 219.335,336.265 220.685,335.855 221.365 C 335.445 222.044,334.993 222.690,334.851 222.800 C 334.709 222.910,334.144 223.674,333.596 224.497 C 333.048 225.321,332.465 225.996,332.300 225.997 C 332.135 225.999,332.000 226.255,332.000 226.567 C 332.000 226.878,331.865 227.193,331.700 227.267 C 331.535 227.340,330.234 228.750,328.810 230.400 C 325.894 233.777,322.279 237.353,319.600 239.510 C 318.610 240.307,317.620 241.155,317.400 241.394 C 317.180 241.634,316.370 242.267,315.600 242.802 C 314.830 243.336,313.968 243.998,313.685 244.273 C 313.402 244.547,312.637 245.087,311.985 245.472 C 311.333 245.857,310.800 246.314,310.800 246.486 C 310.800 246.659,310.564 246.800,310.275 246.800 C 309.987 246.800,309.364 247.160,308.892 247.600 C 308.420 248.040,307.954 248.400,307.858 248.400 C 307.761 248.400,306.538 249.089,305.141 249.932 C 303.743 250.775,302.015 251.719,301.300 252.030 C 300.585 252.341,300.000 252.711,300.000 252.853 C 300.000 252.995,299.361 253.231,298.579 253.378 C 297.797 253.524,297.054 253.915,296.927 254.245 C 296.801 254.576,296.456 254.753,296.161 254.640 C 295.867 254.527,295.519 254.607,295.389 254.817 C 295.242 255.056,281.476 255.200,258.743 255.200 L 222.332 255.200 227.466 252.600 C 232.873 249.861,235.507 248.397,237.262 247.153 C 237.846 246.739,238.521 246.400,238.762 246.400 C 239.003 246.400,239.200 246.220,239.200 246.000 C 239.200 245.780,239.386 245.600,239.613 245.600 C 240.405 245.600,256.641 234.281,258.000 232.782 C 258.110 232.661,258.830 232.129,259.600 231.600 C 260.370 231.071,261.090 230.539,261.200 230.417 C 261.310 230.295,262.050 229.711,262.844 229.120 C 263.639 228.528,265.023 227.359,265.920 226.522 C 268.668 223.957,272.513 220.562,274.272 219.146 C 277.688 216.397,294.597 198.987,300.043 192.612 C 300.789 191.738,301.917 190.478,302.548 189.812 C 303.180 189.145,304.170 187.970,304.748 187.200 C 305.327 186.430,306.028 185.559,306.306 185.265 C 306.584 184.971,307.304 184.073,307.906 183.268 C 308.508 182.464,309.393 181.403,309.873 180.912 C 310.353 180.420,311.252 179.339,311.870 178.509 C 312.489 177.679,313.098 176.910,313.224 176.800 C 313.350 176.690,315.478 173.900,317.952 170.600 C 320.426 167.300,322.886 164.060,323.418 163.400 C 323.950 162.740,324.389 161.975,324.393 161.700 C 324.397 161.425,324.541 161.200,324.714 161.200 C 324.886 161.200,325.321 160.705,325.679 160.100 C 326.037 159.495,326.796 158.460,327.365 157.800 C 327.934 157.140,328.399 156.375,328.400 156.100 C 328.400 155.825,328.541 155.600,328.714 155.600 C 328.886 155.600,329.321 155.105,329.679 154.500 C 330.037 153.895,330.796 152.860,331.366 152.200 C 331.935 151.540,332.672 150.460,333.004 149.800 C 333.336 149.140,335.145 146.260,337.025 143.400 C 338.906 140.540,340.545 137.885,340.669 137.500 C 340.792 137.115,341.052 136.800,341.247 136.800 C 341.441 136.800,341.600 136.530,341.600 136.200 C 341.600 135.870,341.780 135.600,342.000 135.600 C 342.220 135.600,342.400 135.330,342.400 135.000 C 342.400 134.670,342.580 134.400,342.800 134.400 C 343.020 134.400,343.200 134.130,343.200 133.800 C 343.200 133.470,343.380 133.200,343.600 133.200 C 343.820 133.200,344.000 133.010,344.000 132.778 C 344.000 132.546,344.680 131.331,345.511 130.078 C 346.342 128.825,347.286 127.260,347.610 126.600 C 347.934 125.940,348.289 125.310,348.399 125.200 C 348.510 125.090,348.842 124.570,349.138 124.045 C 350.660 121.342,351.229 120.356,352.857 117.600 C 353.832 115.950,355.073 113.658,355.615 112.507 C 356.943 109.686,356.994 109.764,357.042 114.701 C 357.119 122.673,357.199 124.000,357.600 124.000 C 358.036 124.000,358.167 111.663,357.748 110.100 C 357.369 108.688,356.639 109.035,355.643 111.100 M47.536 111.265 C 47.611 111.458,48.331 111.938,49.136 112.332 C 50.996 113.242,52.435 114.071,53.200 114.671 C 53.530 114.931,53.935 115.156,54.100 115.172 C 54.808 115.242,57.600 116.616,57.600 116.894 C 57.600 117.062,57.960 117.200,58.400 117.200 C 58.840 117.200,59.200 117.359,59.200 117.553 C 59.200 117.748,59.515 118.010,59.900 118.136 C 60.285 118.262,61.410 118.849,62.400 119.442 C 63.390 120.034,65.190 121.059,66.400 121.720 C 67.610 122.381,69.050 123.217,69.600 123.578 C 70.150 123.938,71.320 124.586,72.200 125.017 C 73.080 125.448,73.944 126.025,74.120 126.300 C 74.296 126.575,74.628 126.800,74.858 126.800 C 75.088 126.800,75.799 127.172,76.438 127.627 C 77.077 128.082,77.606 128.307,77.613 128.127 C 77.620 127.947,77.845 128.070,78.113 128.400 C 78.381 128.730,79.140 129.267,79.800 129.594 C 80.460 129.920,82.170 130.935,83.600 131.848 C 85.852 133.286,89.655 135.565,95.780 139.147 C 96.671 139.668,97.878 140.433,98.462 140.847 C 99.046 141.261,99.721 141.600,99.962 141.600 C 100.203 141.600,100.400 141.780,100.400 142.000 C 100.400 142.220,100.670 142.400,101.000 142.400 C 101.330 142.400,101.600 142.536,101.600 142.702 C 101.600 142.869,102.185 143.264,102.900 143.580 C 103.615 143.897,104.549 144.480,104.975 144.878 C 105.402 145.275,105.987 145.600,106.275 145.600 C 106.564 145.600,106.800 145.780,106.800 146.000 C 106.800 146.220,106.993 146.400,107.228 146.400 C 107.463 146.400,108.408 146.916,109.328 147.548 C 112.467 149.702,123.306 156.400,123.654 156.400 C 123.844 156.400,124.000 156.580,124.000 156.800 C 124.000 157.020,124.236 157.200,124.525 157.200 C 124.813 157.200,125.436 157.560,125.908 158.000 C 126.380 158.440,126.872 158.800,127.001 158.800 C 127.383 158.800,133.388 162.909,133.533 163.270 C 133.607 163.451,133.907 163.600,134.200 163.600 C 134.493 163.600,134.793 163.743,134.867 163.917 C 134.940 164.091,136.170 165.036,137.600 166.017 C 139.030 166.998,140.290 167.901,140.400 168.024 C 140.510 168.146,142.129 169.496,143.997 171.024 C 145.866 172.551,147.954 174.340,148.639 175.000 C 154.298 180.458,155.760 181.929,158.344 184.770 C 159.964 186.551,162.031 188.950,162.939 190.104 C 163.847 191.257,164.817 192.438,165.095 192.729 C 165.374 193.020,166.450 194.460,167.487 195.929 C 168.524 197.398,169.485 198.690,169.622 198.800 C 170.154 199.227,176.400 208.800,176.400 209.188 C 176.400 209.415,176.580 209.600,176.800 209.600 C 177.020 209.600,177.200 209.757,177.200 209.949 C 177.200 210.141,178.208 212.076,179.440 214.249 C 180.672 216.422,182.490 219.910,183.479 222.000 C 184.468 224.090,186.250 227.789,187.438 230.219 C 188.627 232.649,189.600 234.944,189.600 235.319 C 189.600 235.694,189.780 236.000,190.000 236.000 C 190.220 236.000,190.400 236.349,190.400 236.776 C 190.400 237.203,190.580 237.664,190.800 237.800 C 191.020 237.936,191.200 238.487,191.200 239.024 C 191.200 239.561,191.380 240.000,191.600 240.000 C 191.820 240.000,192.000 240.272,192.000 240.604 C 192.000 240.937,192.351 241.972,192.780 242.904 C 193.582 244.646,196.800 254.204,196.800 254.843 C 196.800 255.347,179.712 255.305,179.400 254.800 C 179.264 254.580,178.803 254.400,178.376 254.400 C 177.949 254.400,177.600 254.220,177.600 254.000 C 177.600 253.780,177.347 253.600,177.038 253.600 C 176.521 253.600,173.262 252.062,172.800 251.600 C 172.690 251.490,171.250 250.695,169.600 249.832 C 167.950 248.970,164.841 247.215,162.691 245.932 C 160.540 244.650,158.605 243.600,158.391 243.600 C 158.176 243.600,158.000 243.450,158.000 243.268 C 158.000 243.085,157.505 242.680,156.900 242.368 C 156.295 242.056,155.710 241.702,155.600 241.581 C 155.490 241.460,154.770 240.935,154.000 240.413 C 152.152 239.162,145.056 233.883,144.800 233.569 C 144.690 233.435,143.070 232.197,141.200 230.820 C 137.530 228.116,134.938 225.985,132.039 223.289 C 131.028 222.349,129.448 220.999,128.528 220.289 C 126.503 218.728,107.028 199.167,104.146 195.800 C 103.016 194.480,101.576 192.857,100.946 192.193 C 100.316 191.529,98.992 189.999,98.005 188.793 C 97.019 187.587,96.116 186.510,96.000 186.400 C 95.820 186.229,93.732 183.701,91.600 181.073 C 91.270 180.666,90.583 179.853,90.073 179.266 C 89.563 178.680,87.046 175.410,84.480 172.000 C 81.914 168.590,79.712 165.710,79.588 165.600 C 79.463 165.490,78.926 164.770,78.394 164.000 C 77.862 163.230,77.202 162.368,76.927 162.085 C 76.653 161.802,76.113 161.037,75.728 160.385 C 75.343 159.733,74.886 159.200,74.714 159.200 C 74.541 159.200,74.400 158.964,74.400 158.675 C 74.400 158.387,74.069 157.795,73.664 157.361 C 73.259 156.926,71.554 154.507,69.875 151.985 C 68.195 149.463,66.636 147.183,66.411 146.917 C 66.185 146.651,66.000 146.331,66.000 146.205 C 66.000 146.079,64.560 143.827,62.800 141.200 C 61.040 138.573,59.600 136.238,59.600 136.012 C 59.600 135.785,59.420 135.600,59.200 135.600 C 58.980 135.600,58.800 135.330,58.800 135.000 C 58.800 134.670,58.620 134.400,58.400 134.400 C 58.180 134.400,58.000 134.130,58.000 133.800 C 58.000 133.470,57.820 133.200,57.600 133.200 C 57.380 133.200,57.200 133.007,57.200 132.772 C 57.200 132.537,56.686 131.592,56.058 130.672 C 55.429 129.752,54.101 127.560,53.107 125.800 C 49.913 120.149,49.733 119.835,48.396 117.600 C 47.672 116.390,46.474 114.266,45.733 112.881 L 44.385 110.361 45.893 110.638 C 46.722 110.790,47.461 111.073,47.536 111.265 M357.235 128.700 C 357.233 130.185,357.123 133.650,356.991 136.400 C 356.738 141.622,357.039 146.147,357.615 145.791 C 358.101 145.490,358.116 126.000,357.630 126.000 C 357.413 126.000,357.237 127.208,357.235 128.700 M356.800 147.106 C 356.353 147.608,356.208 148.724,356.230 151.471 C 356.247 153.500,356.132 155.082,355.975 154.985 C 355.295 154.564,355.115 160.449,355.788 161.121 C 356.254 161.588,356.454 160.742,356.615 157.619 C 356.707 155.821,356.862 154.223,356.959 154.067 C 357.183 153.704,357.746 146.395,357.548 146.415 C 357.467 146.424,357.130 146.734,356.800 147.106 M354.683 163.100 C 354.564 163.705,354.566 164.714,354.688 165.343 C 354.822 166.031,354.716 166.605,354.421 166.787 C 354.145 166.958,353.933 167.936,353.933 169.041 C 353.933 170.115,353.787 171.085,353.608 171.197 C 352.808 171.696,352.997 175.200,353.824 175.200 C 354.167 175.200,354.365 175.065,354.265 174.900 C 354.165 174.735,354.261 173.610,354.478 172.400 C 354.695 171.190,354.916 169.467,354.969 168.571 C 355.021 167.676,355.207 166.713,355.381 166.432 C 355.990 165.446,356.041 162.000,355.447 162.000 C 355.146 162.000,354.802 162.495,354.683 163.100 M352.545 176.489 C 352.379 176.758,352.291 177.639,352.349 178.448 C 352.408 179.257,352.263 180.038,352.028 180.183 C 351.792 180.328,351.600 180.966,351.600 181.600 C 351.600 182.234,351.420 182.864,351.200 183.000 C 350.980 183.136,350.800 183.867,350.800 184.624 C 350.800 186.398,351.863 186.540,351.913 184.772 C 351.932 184.097,352.120 183.332,352.329 183.072 C 352.539 182.813,352.820 181.835,352.955 180.900 C 353.090 179.965,353.309 178.480,353.442 177.600 C 353.680 176.025,353.200 175.429,352.545 176.489 " stroke="none" fill="#6cb468" fill-rule="evenodd"></path></g></svg>